<svg xmlns="http://www.w3.org/2000/svg" width="60" height="52" viewBox="0 0 60 52">
  <g fill="none">
    <path fill="#00F2A9" d="M10.3448276 10.4C16.0582759 10.4 20.6896552 5.74392 20.6896552 0L0 0C0 5.74392 4.63137931 10.4 10.3448276 10.4zM47.5862069 10.4C53.2996552 10.4 57.9310345 5.74392 57.9310345 0L37.2413793 0C37.2413793 5.74392 41.8727586 10.4 47.5862069 10.4z" transform="translate(1.034 28.08)"/>
    <g fill="#322153">
      <path d="M11.3793103 31.2C13.3137931 31.2 15.1324138 30.44184 16.4989655 29.06696 16.9034483 28.66032 16.9034483 28.00304 16.4989655 27.5964 16.0944828 27.18976 15.4406897 27.18976 15.0362069 27.5964 14.0596552 28.57816 12.7603448 29.12 11.3793103 29.12 9.99827586 29.12 8.69896552 28.57816 7.72241379 27.5964 7.31793103 27.18976 6.66413793 27.18976 6.25965517 27.5964 5.85517241 28.00304 5.85517241 28.66032 6.25965517 29.06696 7.6262069 30.44184 9.44482759 31.2 11.3793103 31.2zM48.6206897 31.2C50.5551724 31.2 52.3737931 30.44184 53.7403448 29.06696 54.1448276 28.66032 54.1448276 28.00304 53.7403448 27.5964 53.3358621 27.18976 52.682069 27.18976 52.2775862 27.5964 51.3010345 28.57816 50.0017241 29.12 48.6206897 29.12 47.2396552 29.12 45.9403448 28.57816 44.9637931 27.5964 44.5593103 27.18976 43.9055172 27.18976 43.5010345 27.5964 43.0965517 28.00304 43.0965517 28.66032 43.5010345 29.06696 44.8675862 30.44184 46.6862069 31.2 48.6206897 31.2z"/>
      <path d="M0,23.94808 C0,30.2432 5.11448276,35.36 11.3793103,35.36 C17.6441379,35.36 22.7586207,30.2432 22.7586207,23.94808 C22.7586207,23.94392 22.7586207,23.93976 22.7586207,23.9356 C22.7586207,23.9304 22.7586207,23.9252 22.7586207,23.92104 C22.7586207,23.85344 22.7327586,23.7952 22.7203448,23.73176 C22.707931,23.66624 22.7503448,23.59968 22.7255172,23.5352 L22.7586207,23.51544 L22.7586207,23.5144 L14.4962069,2.85168 C14.4734483,2.58336 14.3793103,2.3244 14.2924138,2.08 L25.1172414,2.08 L28.9448276,13.624 L24.9372414,45.8536 C22.5268966,46.29456 20.6896552,48.41096 20.6896552,50.96 C20.6896552,51.53512 21.152069,52 21.7241379,52 L38.2758621,52 C38.847931,52 39.3103448,51.53512 39.3103448,50.96 C39.3103448,48.41096 37.4731034,46.29456 35.0627586,45.8536 L31.0551724,13.624 L34.8827586,2.08 L45.7075862,2.08 C45.6206897,2.3244 45.5668966,2.58336 45.5441379,2.85168 L37.3231034,23.5144 C37.3231034,23.5144 37.3231034,23.5144 37.3231034,23.51544 L37.3158621,23.53416 C37.29,23.59864 37.292069,23.66624 37.2796552,23.73176 C37.2672414,23.7952 37.2413793,23.85344 37.2413793,23.92 C37.2413793,23.9252 37.2413793,23.9304 37.2413793,23.93456 C37.2413793,23.93872 37.2413793,23.94288 37.2413793,23.94704 C37.2413793,30.2432 42.3558621,35.36 48.6206897,35.36 C54.8855172,35.36 60,30.2432 60,23.94808 C60,23.94392 60,23.93976 60,23.9356 C60,23.9304 60,23.9252 60,23.92104 C60,23.85344 59.9741379,23.7952 59.9617241,23.73176 C59.9493103,23.66624 59.9917241,23.59968 59.9668966,23.5352 L60,23.51544 L60,23.5144 L51.7375862,2.85168 C51.6,1.2584 50.2406897,0 48.6206897,0 L11.3793103,0 C9.75931034,0 8.44034483,1.2584 8.30275862,2.85168 L0.0817241379,23.5144 C0.0817241379,23.5144 0.0817241379,23.5144 0.0817241379,23.51544 L0.0744827586,23.53416 C0.0486206897,23.59864 0.0506896552,23.66624 0.0382758621,23.73176 C0.025862069,23.7952 0,23.85344 0,23.92 C0,23.9252 0,23.9304 0,23.93456 C0,23.93976 0,23.94288 0,23.94808 Z M9.45724138,5.55048 C9.98793103,5.97584 10.65,6.24 11.3793103,6.24 C12.1086207,6.24 12.7706897,5.97584 13.3013793,5.55048 L20.1962069,22.88 L2.56241379,22.88 L9.45724138,5.55048 Z M12.4137931,3.12 C12.4137931,3.69408 11.9503448,4.16 11.3793103,4.16 C10.8082759,4.16 10.3448276,3.69408 10.3448276,3.12 C10.3448276,2.54592 10.8082759,2.08 11.3793103,2.08 C11.9503448,2.08 12.4137931,2.54592 12.4137931,3.12 Z M11.3793103,33.28 C6.59482759,33.28 2.64310345,29.63376 2.12689655,24.96 L20.6327586,24.96 C20.1155172,29.63376 16.1637931,33.28 11.3793103,33.28 Z M30,21.90552 L32.9658621,45.76 L27.0331034,45.76 L30,21.90552 Z M37.0644828,49.92 L22.9355172,49.92 C23.3627586,48.70944 24.5131034,47.84 25.862069,47.84 L34.137931,47.84 C35.4868966,47.84 36.6372414,48.70944 37.0644828,49.92 Z M30,10.23152 L27.2968966,2.08 L32.7031034,2.08 L30,10.23152 Z M57.4375862,22.88 L39.8037931,22.88 L46.6986207,5.55048 C47.2293103,5.97584 47.8913793,6.24 48.6206897,6.24 C49.35,6.24 50.012069,5.97584 50.5427586,5.55048 L57.4375862,22.88 Z M49.6551724,3.12 C49.6551724,3.69408 49.1917241,4.16 48.6206897,4.16 C48.0496552,4.16 47.5862069,3.69408 47.5862069,3.12 C47.5862069,2.54592 48.0496552,2.08 48.6206897,2.08 C49.1917241,2.08 49.6551724,2.54592 49.6551724,3.12 Z M48.6206897,33.28 C43.8362069,33.28 39.8844828,29.63376 39.3682759,24.96 L57.8741379,24.96 C57.3568966,29.63376 53.4051724,33.28 48.6206897,33.28 Z"/>
    </g>
  </g>
</svg>
