<svg xmlns="http://www.w3.org/2000/svg" width="60" height="63" viewBox="0 0 60 63">
  <g fill="none">
    <path fill="#00F2A9" d="M44.6265517,9.12467213 C40.3324138,6.61086885 35.3368966,5.16393443 30,5.16393443 C24.6858621,5.16393443 19.71,6.5995082 15.4282759,9.09368852 C13.2962069,10.3361311 11.3348276,11.8367705 9.5937931,13.5625574 C4.30862069,18.8008525 1.03448276,26.0592787 1.03448276,34.0819672 C1.03448276,42.1232459 4.32517241,49.3961311 9.63206897,54.6385574 C11.3637931,56.3488525 13.3117241,57.8381311 15.4282759,59.0712787 C19.71,61.5644262 24.6858621,63 30,63 C35.3368966,63 40.3324138,61.5530656 44.6265517,59.0392623 C46.7224138,57.8123115 48.6517241,56.3333607 50.367931,54.6385574 C55.6748276,49.3961311 58.9655172,42.1232459 58.9655172,34.0819672 C58.9655172,26.0592787 55.6913793,18.8008525 50.4062069,13.5625574 C48.6806897,11.8512295 46.737931,10.360918 44.6265517,9.12467213 Z"/>
    <path fill="#322153" d="M45.15,4.1032623 C40.5651724,1.41904918 35.3255172,0 30,0 C24.6972414,0 19.4772414,1.40665574 14.9068966,4.07021311 C12.6951724,5.35809836 10.6624138,6.91554098 8.86448276,8.69709836 C3.14793103,14.364 0,21.9126393 0,29.9508197 C0,38.008623 3.16241379,45.5696557 8.9037931,51.2406885 C10.6934483,53.0088197 12.7137931,54.5538689 14.9068966,55.8303934 C19.4782759,58.4949836 24.6972414,59.9016393 30,59.9016393 C35.3255172,59.9016393 40.5651724,58.4825902 45.15,55.798377 C47.3203448,54.5280492 49.3210345,52.9943607 51.0962069,51.2406885 C56.8375862,45.5696557 60,38.008623 60,29.9508197 C60,21.9126393 56.852069,14.3650328 51.1365517,8.69813115 C49.35,6.92896721 47.3368966,5.38185246 45.15,4.1032623 Z M47.4537931,15.0972787 C47.5355172,15.3771639 47.6224138,15.6570492 47.6989655,15.9369344 C47.8510345,16.486377 47.9886207,17.0368525 48.1231034,17.5862951 C48.1727586,17.7897541 48.2296552,17.9942459 48.2762069,18.1977049 C48.4531034,18.9568033 48.6134483,19.7159016 48.7562069,20.4739672 C48.7727586,20.5648525 48.7851724,20.6547049 48.8017241,20.7455902 C48.9227586,21.4076066 49.0334483,22.069623 49.1286207,22.7316393 C49.1648276,22.9857049 49.1917241,23.2397705 49.2248276,23.4948689 C49.2889655,23.9916393 49.3510345,24.4884098 49.4006897,24.9841475 C49.4306897,25.2815902 49.4513793,25.5790328 49.4762069,25.8754426 C49.5134483,26.3278033 49.5475862,26.7811967 49.5724138,27.2325246 C49.59,27.5475246 49.6013793,27.8625246 49.6117241,28.1775246 C49.6210345,28.4243607 49.6241379,28.6701639 49.6293103,28.917 L31.0344828,28.917 L31.0344828,14.4486885 C31.2506897,14.4445574 31.467931,14.4311311 31.6841379,14.4239016 C31.9613793,14.4146066 32.2386207,14.4053115 32.5158621,14.3918852 C32.9327586,14.3722623 33.3506897,14.344377 33.7686207,14.3144262 C34.0406897,14.2948033 34.3127586,14.2772459 34.5848276,14.2534918 C35.0286207,14.2152787 35.4734483,14.1667377 35.9172414,14.1161311 C36.1603448,14.0892787 36.4034483,14.0665574 36.6465517,14.0355738 C37.2268966,13.9622459 37.8072414,13.8775574 38.3875862,13.7856393 C38.4951724,13.7691148 38.6017241,13.7556885 38.7093103,13.7381311 C39.3941379,13.6255574 40.0789655,13.4985246 40.7637931,13.3601311 C40.9789655,13.3167541 41.1941379,13.2651148 41.4082759,13.2196721 C41.8831034,13.118459 42.357931,13.0141475 42.8317241,12.900541 C43.0893103,12.8385738 43.3458621,12.7704098 43.6024138,12.7043115 C44.0389655,12.5927705 44.4744828,12.4791639 44.9110345,12.3572951 C45.1737931,12.2839672 45.4365517,12.2054754 45.6993103,12.1290492 C45.9403448,12.0577869 46.1813793,11.9937541 46.4224138,11.9193934 C46.5206897,12.1972131 46.62,12.4750328 46.7141379,12.7528525 C46.8186207,13.060623 46.9241379,13.3673607 47.0224138,13.6751311 C47.1744828,14.1502131 47.3151724,14.6232295 47.4537931,15.0972787 Z M49.5724138,32.6815082 C49.5475862,33.123541 49.5134483,33.5666066 49.4782759,34.0086393 C49.4534483,34.3184754 49.4306897,34.6283115 49.3996552,34.9391803 C49.352069,35.4121967 49.292069,35.8852131 49.232069,36.3592623 C49.1958621,36.6401803 49.1658621,36.9200656 49.1255172,37.2009836 C49.0396552,37.7958689 48.9382759,38.3907541 48.8317241,38.9866721 C48.8027586,39.1457213 48.7810345,39.3058033 48.7510345,39.4648525 C48.6093103,40.213623 48.45,40.9634262 48.2762069,41.7132295 C48.2182759,41.9610984 48.15,42.2089672 48.0889655,42.4578689 C47.9637931,42.9649672 47.8375862,43.4720656 47.6968966,43.9791639 C47.6131034,44.2828033 47.5189655,44.5854098 47.43,44.8890492 C47.2965517,45.3424426 47.162069,45.7968689 47.0162069,46.2502623 C46.9137931,46.5693934 46.8041379,46.8874918 46.6955172,47.206623 C46.6024138,47.4792787 46.5051724,47.7519344 46.4089655,48.0245902 C46.1772414,47.9522951 45.9455172,47.8903279 45.7137931,47.8211311 C45.4293103,47.7364426 45.1448276,47.6517541 44.8603448,47.5711967 C44.4351724,47.4513934 44.01,47.3398525 43.5848276,47.230377 C43.3168966,47.1611803 43.05,47.0888852 42.782069,47.0238197 C42.3051724,46.9081475 41.8293103,46.8028033 41.3534483,46.6995246 C41.1403448,46.6530492 40.9262069,46.6014098 40.7131034,46.5580328 C40.0262069,46.4175738 39.3403448,46.2884754 38.6565517,46.1738361 C38.5386207,46.1542131 38.4217241,46.1397541 38.3037931,46.1211639 C37.7358621,46.0302787 37.167931,45.9455902 36.6010345,45.8722623 C36.3537931,45.8402459 36.1075862,45.8164918 35.8603448,45.7886066 C35.4237931,45.7390328 34.9872414,45.6904918 34.5527586,45.6512459 C34.2734483,45.626459 33.9951724,45.6078689 33.7168966,45.5872131 C33.3144828,45.5582951 32.9131034,45.5304098 32.5117241,45.5107869 C32.2210345,45.4963279 31.9313793,45.486 31.6417241,45.4767049 C31.44,45.4705082 31.2372414,45.457082 31.0355172,45.4529508 L31.0355172,30.9836066 L49.6313793,30.9836066 C49.6262069,31.228377 49.6231034,31.4741803 49.6137931,31.7189508 C49.6013793,32.0401475 49.59,32.3603115 49.5724138,32.6815082 Z M16.23,54.2078852 C15.8627586,53.4539508 15.5068966,52.6855574 15.1665517,51.9027049 C15.0796552,51.7013115 14.997931,51.4957869 14.9131034,51.2933607 C14.7268966,50.8523607 14.5510345,50.4041311 14.3751724,49.9559016 C14.5737931,49.8949672 14.7724138,49.8319672 14.9710345,49.7730984 C15.2368966,49.6946066 15.5027586,49.6161148 15.7686207,49.5417541 C16.1813793,49.426082 16.5931034,49.3176393 17.0058621,49.2112623 C17.2582759,49.1461967 17.5096552,49.0800984 17.7610345,49.0191639 C18.2141379,48.9096885 18.6662069,48.8095082 19.1172414,48.7113934 C19.3262069,48.6659508 19.5351724,48.616377 19.7431034,48.5740328 C20.4031034,48.4387377 21.0631034,48.3148033 21.7210345,48.2053279 C21.7386207,48.2022295 21.7562069,48.2001639 21.7737931,48.1970656 C22.4131034,48.0917213 23.0513793,47.9987705 23.6886207,47.9182131 C23.8975862,47.8913607 24.1065517,47.8717377 24.3155172,47.8479836 C24.7613793,47.7963443 25.2062069,47.7478033 25.65,47.7075246 C25.8962069,47.6858361 26.1424138,47.6693115 26.3886207,47.6507213 C26.7951724,47.6207705 27.2017241,47.593918 27.6072414,47.5732623 C27.8648276,47.5608689 28.1224138,47.550541 28.38,47.5422787 C28.5755172,47.536082 28.7710345,47.5340164 28.9655172,47.5298852 L28.9655172,57.8164426 C24.4944828,57.6501639 20.1175862,56.4118525 16.23,54.2078852 Z M12.5896552,44.8012623 C12.5048276,44.5131148 12.4148276,44.2239344 12.3341379,43.9357869 C12.1831034,43.3956393 12.0465517,42.8554918 11.9131034,42.316377 C11.8593103,42.0974262 11.7972414,41.8784754 11.7465517,41.6595246 C11.5686207,40.901459 11.4051724,40.1444262 11.2613793,39.389459 C11.2365517,39.2582951 11.217931,39.1281639 11.1941379,38.9980328 C11.0793103,38.3752623 10.9727586,37.7524918 10.8817241,37.1317869 C10.8434483,36.869459 10.8144828,36.6091967 10.7803448,36.3479016 C10.7162069,35.8583607 10.6531034,35.3677869 10.6034483,34.8803115 C10.5734483,34.587 10.5517241,34.2947213 10.5268966,34.0024426 C10.4886207,33.5480164 10.4534483,33.0935902 10.4275862,32.6401967 C10.41,32.3355246 10.3996552,32.0308525 10.3882759,31.7272131 C10.3789655,31.4793443 10.3758621,31.2325082 10.3696552,30.9846393 L28.9655172,30.9846393 L28.9655172,45.4550164 C28.7658621,45.4591475 28.5641379,45.4725738 28.3634483,45.4787705 C28.0737931,45.4880656 27.7841379,45.4983934 27.4934483,45.5128525 C27.0962069,45.5324754 26.697931,45.5593279 26.2996552,45.5882459 C26.0193103,45.6089016 25.7389655,45.6274918 25.4586207,45.6522787 C25.0303448,45.6904918 24.6010345,45.738 24.1717241,45.786541 C23.9193103,45.815459 23.6668966,45.8392131 23.4144828,45.8722623 C22.8568966,45.9435246 22.2993103,46.0271803 21.7396552,46.116 C21.6155172,46.135623 21.4913793,46.1511148 21.3672414,46.1717705 C20.6844828,46.285377 20.0006897,46.4134426 19.3158621,46.5539016 C19.1068966,46.5962459 18.897931,46.6468525 18.6889655,46.6922951 C18.2089655,46.7966066 17.7289655,46.9019508 17.247931,47.0186557 C16.9872414,47.0816557 16.7255172,47.1518852 16.4648276,47.2190164 C16.0355172,47.3295246 15.6051724,47.4420984 15.1758621,47.5629344 C14.8965517,47.6414262 14.6172414,47.7240492 14.337931,47.8077049 C14.1041379,47.8769016 13.8713793,47.9399016 13.6375862,48.0121967 C13.5362069,47.7271475 13.4337931,47.4420984 13.3375862,47.1570492 C13.232069,46.8461803 13.1244828,46.5353115 13.0241379,46.2244426 C12.8710345,45.7483279 12.7293103,45.2742787 12.5896552,44.8012623 Z M10.4275862,27.2655738 C10.4524138,26.8163115 10.4875862,26.3660164 10.5258621,25.9157213 C10.5506897,25.6203443 10.5724138,25.326 10.6024138,25.030623 C10.6510345,24.5472787 10.7131034,24.0629016 10.7772414,23.5785246 C10.8113793,23.3141311 10.8403448,23.0497377 10.8796552,22.7853443 C10.9696552,22.1698033 11.0751724,21.5521967 11.1889655,20.9345902 C11.2137931,20.8003279 11.2313793,20.6681311 11.2572414,20.5338689 C11.4010345,19.7799344 11.5634483,19.0249672 11.7403448,18.2679344 C11.79,18.0572459 11.8489655,17.8455246 11.9006897,17.6338033 C12.0362069,17.087459 12.1737931,16.540082 12.3258621,15.9927049 C12.4034483,15.7128197 12.4913793,15.4319016 12.5741379,15.1520164 C12.7158621,14.6717705 12.8586207,14.1915246 13.0137931,13.7112787 C13.112069,13.4066066 13.2165517,13.1019344 13.32,12.7972623 C13.4172414,12.5101475 13.5206897,12.222 13.6231034,11.9348852 C13.8465517,12.004082 14.0710345,12.0639836 14.2955172,12.1290492 C14.582069,12.2137377 14.8675862,12.2973934 15.1541379,12.3779508 C15.5689655,12.493623 15.9848276,12.6010328 16.3996552,12.7074098 C16.6696552,12.7766066 16.9396552,12.8478689 17.2106897,12.9129344 C17.6751724,13.0244754 18.1396552,13.1256885 18.6041379,13.2248361 C18.8255172,13.2723443 19.0458621,13.3250164 19.2672414,13.3694262 C19.9510345,13.5078197 20.6348276,13.6338197 21.3186207,13.7453607 C21.4044828,13.7598197 21.4893103,13.7691148 21.5751724,13.782541 C22.1762069,13.8785902 22.7782759,13.9653443 23.3793103,14.0407377 C23.6058621,14.068623 23.8324138,14.0903115 24.0589655,14.1161311 C24.5193103,14.1677705 24.9796552,14.2173443 25.4389655,14.257623 C25.6996552,14.2803443 25.9593103,14.2968689 26.2189655,14.315459 C26.6451724,14.3464426 27.0703448,14.3743279 27.4955172,14.3939508 C27.7686207,14.407377 28.0417241,14.4166721 28.3148276,14.4249344 C28.5310345,14.4321639 28.7482759,14.4455902 28.9644828,14.4497213 L28.9644828,28.9180328 L10.3696552,28.9180328 C10.3748276,28.6722295 10.3789655,28.4264262 10.3872414,28.1795902 C10.3996552,27.874918 10.4110345,27.5702459 10.4275862,27.2655738 Z M43.8258621,5.7247377 C44.1941379,6.47557377 44.552069,7.24190164 44.8934483,8.0247541 C44.9813793,8.22511475 45.062069,8.43167213 45.1468966,8.63409836 C45.3331034,9.07509836 45.5089655,9.52436066 45.6868966,9.97362295 C45.5006897,10.0304262 45.3144828,10.0892951 45.1272414,10.1450656 C44.8468966,10.2276885 44.5655172,10.3092787 44.2851724,10.3877705 C43.8951724,10.4962131 43.5041379,10.598459 43.1131034,10.6986393 C42.8431034,10.7678361 42.5741379,10.8380656 42.3041379,10.9031311 C41.8758621,11.0064098 41.4475862,11.0993607 41.0193103,11.1912787 C40.7896552,11.2408525 40.5589655,11.2945574 40.3282759,11.3410328 C39.6931034,11.4690984 39.0568966,11.5868361 38.4217241,11.6921803 C38.3710345,11.7004426 38.3193103,11.7087049 38.2686207,11.7169672 C37.6396552,11.8192131 37.0117241,11.9090656 36.3837931,11.9875574 C36.1613793,12.0154426 35.94,12.0360984 35.7186207,12.0608852 C35.282069,12.110459 34.8444828,12.1579672 34.407931,12.1961803 C34.1482759,12.2189016 33.8886207,12.2354262 33.6289655,12.2540164 C33.2317241,12.2829344 32.8344828,12.3087541 32.4372414,12.328377 C32.1610345,12.3418033 31.8858621,12.3510984 31.6106897,12.3603934 C31.4172414,12.3665902 31.2248276,12.3686557 31.0324138,12.3727869 L31.0324138,2.08519672 C35.5282759,2.25147541 39.9237931,3.50114754 43.8258621,5.7247377 Z M48.4644828,9.03172131 C48.1996552,9.12777049 47.937931,9.22485246 47.6710345,9.31677049 C47.4848276,8.84272131 47.2934483,8.3707377 47.0958621,7.90391803 C47.5655172,8.26539344 48.0206897,8.64236066 48.4644828,9.03172131 Z M28.9655172,12.3717541 C28.7731034,12.367623 28.5817241,12.3655574 28.3893103,12.3593607 C28.1151724,12.3510984 27.84,12.3407705 27.5658621,12.3273443 C27.1727586,12.3087541 26.7796552,12.2829344 26.3865517,12.2540164 C26.1227586,12.2354262 25.86,12.2178689 25.5962069,12.1951475 C25.17,12.1579672 24.7427586,12.1114918 24.3165517,12.0639836 C24.0868966,12.0381639 23.8572414,12.0164754 23.6275862,11.9875574 C23.0058621,11.9090656 22.3831034,11.8212787 21.7603448,11.7200656 C21.7065517,11.7118033 21.6517241,11.7025082 21.597931,11.6942459 C20.9648276,11.5899344 20.3306897,11.4732295 19.6965517,11.3451639 C19.4762069,11.3007541 19.2558621,11.2491148 19.0344828,11.2016066 C18.5958621,11.107623 18.1572414,11.0115738 17.7186207,10.9072623 C17.4631034,10.8463279 17.2086207,10.7791967 16.9531034,10.7141311 C16.5455172,10.6108525 16.1389655,10.5044754 15.7313793,10.3908689 C15.4696552,10.3185738 15.2089655,10.2421475 14.9472414,10.1657213 C14.7506897,10.1078852 14.5541379,10.045918 14.3586207,9.98601639 C14.5355172,9.53572131 14.7124138,9.08439344 14.8986207,8.64132787 C14.9865517,8.4337377 15.0693103,8.22201639 15.1582759,8.0164918 C15.5006897,7.22744262 15.8596552,6.45388525 16.2289655,5.6937541 C20.1175862,3.4887541 24.4944828,2.25147541 28.9655172,2.08519672 L28.9655172,12.3717541 Z M12.3693103,9.34568852 C12.1531034,9.27132787 11.9358621,9.20006557 11.7206897,9.12363934 C11.672069,9.10608197 11.6224138,9.08955738 11.5737931,9.072 C11.5541379,9.06477049 11.5344828,9.0565082 11.5148276,9.05031148 C11.9875862,8.63409836 12.4758621,8.23337705 12.9775862,7.84814754 C12.7686207,8.34285246 12.5658621,8.8437541 12.3693103,9.34568852 Z M9.85344828,10.6397705 C10.0148276,10.7017377 10.1824138,10.7575082 10.3448276,10.8174098 C10.6634483,10.9351475 10.982069,11.0518525 11.3048276,11.165459 C11.4186207,11.2057377 11.5293103,11.2491148 11.6441379,11.2883607 C11.5437931,11.5713443 11.4558621,11.8543279 11.3606897,12.1373115 C11.25,12.4636721 11.1382759,12.7900328 11.0327586,13.1163934 C10.8775862,13.5987049 10.7337931,14.0799836 10.592069,14.5612623 C10.5010345,14.8690328 10.4068966,15.1757705 10.3210345,15.483541 C10.1731034,16.016459 10.0396552,16.5483443 9.90724138,17.0802295 C9.84413793,17.3332623 9.77482759,17.5873279 9.71586207,17.8403607 C9.53275862,18.6221803 9.36517241,19.404 9.21724138,20.1837541 C9.20068966,20.2694754 9.18931034,20.3551967 9.1737931,20.440918 C9.04448276,21.1370164 8.92758621,21.8310492 8.8262069,22.5240492 C8.78793103,22.7884426 8.75896552,23.0528361 8.72482759,23.3172295 C8.65758621,23.8305246 8.59241379,24.3438197 8.54068966,24.8550492 C8.50965517,25.1586885 8.48793103,25.4612951 8.46310345,25.7639016 C8.4237931,26.236918 8.38655172,26.7089016 8.36068966,27.1798525 C8.34310345,27.4938197 8.33172414,27.8077869 8.32034483,28.1207213 C8.31103448,28.3861475 8.29137931,28.6536393 8.2862069,28.9190656 L2.08758621,28.9190656 C2.33689655,22.0438033 5.06689655,15.609541 9.85344828,10.6397705 Z M8.2862069,30.9836066 C8.29137931,31.2500656 8.31,31.5175574 8.32034483,31.7840164 C8.33172414,32.0990164 8.34310345,32.4140164 8.36068966,32.7300492 C8.38655172,33.201 8.4237931,33.6729836 8.46310345,34.1449672 C8.48896552,34.4496393 8.51068966,34.7543115 8.54172414,35.0589836 C8.59344828,35.5722787 8.65965517,36.0866066 8.72689655,36.6019672 C8.76103448,36.8663607 8.79,37.1297213 8.82827586,37.3941148 C8.93172414,38.1026066 9.05172414,38.8131639 9.18413793,39.5247541 C9.19758621,39.5960164 9.20689655,39.6662459 9.22034483,39.7375082 C9.36931034,40.5213934 9.53896552,41.3073443 9.72310345,42.0943279 C9.77896552,42.3339344 9.8462069,42.5745738 9.90517241,42.8141803 C10.0406897,43.3625902 10.1793103,43.9099672 10.3324138,44.4594098 C10.4151724,44.7568525 10.5072414,45.0553279 10.5951724,45.3538033 C10.74,45.8464426 10.887931,46.339082 11.0472414,46.8317213 C11.1506897,47.1518852 11.2603448,47.4720492 11.37,47.7922131 C11.4682759,48.0803607 11.5572414,48.3685082 11.6596552,48.6566557 C11.0648276,48.8621803 10.4741379,49.077 9.89068966,49.2980164 C5.08137931,44.323082 2.33689655,37.8764262 2.08758621,30.9836066 L8.2862069,30.9836066 Z M11.577931,50.9050328 C11.85,50.806918 12.117931,50.7067377 12.392069,50.6127541 C12.5813793,51.0960984 12.7768966,51.577377 12.9775862,52.0534918 C12.4975862,51.6858197 12.032069,51.301623 11.577931,50.9050328 Z M31.0344828,47.5298852 C31.23,47.5340164 31.4244828,47.536082 31.62,47.5422787 C31.8817241,47.5515738 32.1444828,47.5608689 32.4072414,47.5742951 C32.8034483,47.593918 33.2017241,47.6207705 33.6,47.6496885 C33.8575862,47.6682787 34.1151724,47.6858361 34.3737931,47.7095902 C34.802069,47.7478033 35.2313793,47.7953115 35.6606897,47.8448852 C35.8862069,47.8707049 36.1117241,47.8923934 36.3382759,47.9213115 C36.9434483,47.9987705 37.5496552,48.0875902 38.157931,48.1877705 C38.2086207,48.1960328 38.2582759,48.2022295 38.3089655,48.2104918 C38.9658621,48.3199672 39.6237931,48.4439016 40.2817241,48.5791967 C40.4948276,48.6225738 40.7089655,48.6742131 40.922069,48.7196557 C41.3731034,48.8177705 41.8241379,48.9179508 42.2751724,49.0274262 C42.5244828,49.0883607 42.7737931,49.154459 43.0231034,49.2184918 C43.442069,49.3259016 43.86,49.4364098 44.2789655,49.5551803 C44.5375862,49.6274754 44.7972414,49.7039016 45.0558621,49.7813607 C45.2606897,49.8422951 45.4655172,49.9073607 45.6693103,49.9703607 C45.4955172,50.4103279 45.3227586,50.8502951 45.1396552,51.2840656 C45.0527586,51.4895902 44.9710345,51.6982131 44.882069,51.9006393 C44.5437931,52.6752295 44.19,53.4332951 43.8248276,54.1769016 C39.9237931,56.4004918 35.5282759,57.6501639 31.0344828,57.8164426 L31.0344828,47.5298852 L31.0344828,47.5298852 Z M47.6534483,50.6282459 C47.912069,50.7180984 48.1655172,50.812082 48.422069,50.9050328 C47.9917241,51.2830328 47.55,51.6465738 47.0968966,51.9966885 C47.2872414,51.5432951 47.4734483,51.0868033 47.6534483,50.6282459 Z M50.1082759,49.2990492 C49.5403448,49.0831967 48.9641379,48.8745738 48.3848276,48.6731803 C48.4872414,48.3829672 48.5772414,48.0927541 48.6755172,47.8035738 C48.7789655,47.4968361 48.8844828,47.1900984 48.9827586,46.8833607 C49.1441379,46.3803934 49.2941379,45.8774262 49.4410345,45.374459 C49.5237931,45.0914754 49.6106897,44.8084918 49.6893103,44.5255082 C49.8455172,43.9626393 49.9862069,43.3987377 50.1248276,42.8358689 C50.1796552,42.6138197 50.2406897,42.3907377 50.2924138,42.1686885 C50.4765517,41.3775738 50.6441379,40.5874918 50.7931034,39.796377 C50.7941379,39.7922459 50.7941379,39.787082 50.7951724,39.7829508 C50.9410345,39.0042295 51.0682759,38.2255082 51.18,37.4478197 C51.2162069,37.1978852 51.242069,36.9489836 51.2741379,36.6990492 C51.3434483,36.1661311 51.4096552,35.6332131 51.4624138,35.1013279 C51.4924138,34.8007869 51.5131034,34.5012787 51.537931,34.2017705 C51.5772414,33.719459 51.6144828,33.2371475 51.6403448,32.7548361 C51.657931,32.4388033 51.6682759,32.1227705 51.6796552,31.8077705 C51.69,31.534082 51.7086207,31.2583279 51.7137931,30.9846393 L57.9124138,30.9846393 C57.6631034,37.8764262 54.9186207,44.323082 50.1082759,49.2990492 Z M51.7137931,28.9180328 C51.7086207,28.645377 51.69,28.3727213 51.6796552,28.1000656 C51.6682759,27.7840328 51.657931,27.468 51.6403448,27.1509344 C51.6144828,26.6758525 51.5782759,26.1997377 51.5389655,25.723623 C51.5141379,25.417918 51.4924138,25.1122131 51.4624138,24.8054754 C51.4117241,24.2942459 51.3475862,23.7830164 51.2824138,23.2717869 C51.2472414,23.0001639 51.2193103,22.7295738 51.18,22.4579508 C51.0796552,21.7577213 50.9627586,21.056459 50.8344828,20.3551967 C50.82,20.2746393 50.8096552,20.194082 50.7941379,20.1135246 C50.6482759,19.3358361 50.4827586,18.5571148 50.3027586,17.7794262 C50.2417241,17.514 50.1693103,17.2485738 50.1041379,16.9831475 C49.9768966,16.4657213 49.8486207,15.9482951 49.7058621,15.4319016 C49.62,15.1189672 49.5237931,14.8070656 49.4327586,14.4941311 C49.2941379,14.0221475 49.1544828,13.5511967 49.0034483,13.0802459 C48.8989655,12.7528525 48.7872414,12.425459 48.6765517,12.0980656 C48.5834483,11.8223115 48.4986207,11.5465574 48.4013793,11.2718361 C48.5172414,11.2315574 48.63,11.1881803 48.7448276,11.1468689 C49.05,11.039459 49.35,10.9289508 49.652069,10.8174098 C49.8165517,10.7564754 49.9841379,10.6996721 50.1475862,10.6377049 C54.9341379,15.6085082 57.6651724,22.0417377 57.9144828,28.9159672 L51.7137931,28.9159672 L51.7137931,28.9180328 Z"/>
    <path fill="#00F2A9" d="M44.6265517,9.12467213 C40.3324138,6.61086885 35.3368966,5.16393443 30,5.16393443 C24.6858621,5.16393443 19.71,6.5995082 15.4282759,9.09368852 C13.2962069,10.3361311 11.3348276,11.8367705 9.5937931,13.5625574 C4.30862069,18.8008525 1.03448276,26.0592787 1.03448276,34.0819672 C1.03448276,42.1232459 4.32517241,49.3961311 9.63206897,54.6385574 C11.3637931,56.3488525 13.3117241,57.8381311 15.4282759,59.0712787 C19.71,61.5644262 24.6858621,63 30,63 C35.3368966,63 40.3324138,61.5530656 44.6265517,59.0392623 C46.7224138,57.8123115 48.6517241,56.3333607 50.367931,54.6385574 C55.6748276,49.3961311 58.9655172,42.1232459 58.9655172,34.0819672 C58.9655172,26.0592787 55.6913793,18.8008525 50.4062069,13.5625574 C48.6806897,11.8512295 46.737931,10.360918 44.6265517,9.12467213 Z"/>
    <path fill="#322153" d="M45.15,4.1032623 C40.5651724,1.41904918 35.3255172,1.27897692e-13 30,1.27897692e-13 C24.6972414,1.27897692e-13 19.4772414,1.40665574 14.9068966,4.07021311 C12.6951724,5.35809836 10.6624138,6.91554098 8.86448276,8.69709836 C3.14793103,14.364 0,21.9126393 0,29.9508197 C0,38.008623 3.16241379,45.5696557 8.9037931,51.2406885 C10.6934483,53.0088197 12.7137931,54.5538689 14.9068966,55.8303934 C19.4782759,58.4949836 24.6972414,59.9016393 30,59.9016393 C35.3255172,59.9016393 40.5651724,58.4825902 45.15,55.798377 C47.3203448,54.5280492 49.3210345,52.9943607 51.0962069,51.2406885 C56.8375862,45.5696557 60,38.008623 60,29.9508197 C60,21.9126393 56.852069,14.3650328 51.1365517,8.69813115 C49.35,6.92896721 47.3368966,5.38185246 45.15,4.1032623 Z M47.4537931,15.0972787 C47.5355172,15.3771639 47.6224138,15.6570492 47.6989655,15.9369344 C47.8510345,16.486377 47.9886207,17.0368525 48.1231034,17.5862951 C48.1727586,17.7897541 48.2296552,17.9942459 48.2762069,18.1977049 C48.4531034,18.9568033 48.6134483,19.7159016 48.7562069,20.4739672 C48.7727586,20.5648525 48.7851724,20.6547049 48.8017241,20.7455902 C48.9227586,21.4076066 49.0334483,22.069623 49.1286207,22.7316393 C49.1648276,22.9857049 49.1917241,23.2397705 49.2248276,23.4948689 C49.2889655,23.9916393 49.3510345,24.4884098 49.4006897,24.9841475 C49.4306897,25.2815902 49.4513793,25.5790328 49.4762069,25.8754426 C49.5134483,26.3278033 49.5475862,26.7811967 49.5724138,27.2325246 C49.59,27.5475246 49.6013793,27.8625246 49.6117241,28.1775246 C49.6210345,28.4243607 49.6241379,28.6701639 49.6293103,28.917 L31.0344828,28.917 L31.0344828,14.4486885 C31.2506897,14.4445574 31.467931,14.4311311 31.6841379,14.4239016 C31.9613793,14.4146066 32.2386207,14.4053115 32.5158621,14.3918852 C32.9327586,14.3722623 33.3506897,14.344377 33.7686207,14.3144262 C34.0406897,14.2948033 34.3127586,14.2772459 34.5848276,14.2534918 C35.0286207,14.2152787 35.4734483,14.1667377 35.9172414,14.1161311 C36.1603448,14.0892787 36.4034483,14.0665574 36.6465517,14.0355738 C37.2268966,13.9622459 37.8072414,13.8775574 38.3875862,13.7856393 C38.4951724,13.7691148 38.6017241,13.7556885 38.7093103,13.7381311 C39.3941379,13.6255574 40.0789655,13.4985246 40.7637931,13.3601311 C40.9789655,13.3167541 41.1941379,13.2651148 41.4082759,13.2196721 C41.8831034,13.118459 42.357931,13.0141475 42.8317241,12.900541 C43.0893103,12.8385738 43.3458621,12.7704098 43.6024138,12.7043115 C44.0389655,12.5927705 44.4744828,12.4791639 44.9110345,12.3572951 C45.1737931,12.2839672 45.4365517,12.2054754 45.6993103,12.1290492 C45.9403448,12.0577869 46.1813793,11.9937541 46.4224138,11.9193934 C46.5206897,12.1972131 46.62,12.4750328 46.7141379,12.7528525 C46.8186207,13.060623 46.9241379,13.3673607 47.0224138,13.6751311 C47.1744828,14.1502131 47.3151724,14.6232295 47.4537931,15.0972787 Z M49.5724138,32.6815082 C49.5475862,33.123541 49.5134483,33.5666066 49.4782759,34.0086393 C49.4534483,34.3184754 49.4306897,34.6283115 49.3996552,34.9391803 C49.352069,35.4121967 49.292069,35.8852131 49.232069,36.3592623 C49.1958621,36.6401803 49.1658621,36.9200656 49.1255172,37.2009836 C49.0396552,37.7958689 48.9382759,38.3907541 48.8317241,38.9866721 C48.8027586,39.1457213 48.7810345,39.3058033 48.7510345,39.4648525 C48.6093103,40.213623 48.45,40.9634262 48.2762069,41.7132295 C48.2182759,41.9610984 48.15,42.2089672 48.0889655,42.4578689 C47.9637931,42.9649672 47.8375862,43.4720656 47.6968966,43.9791639 C47.6131034,44.2828033 47.5189655,44.5854098 47.43,44.8890492 C47.2965517,45.3424426 47.162069,45.7968689 47.0162069,46.2502623 C46.9137931,46.5693934 46.8041379,46.8874918 46.6955172,47.206623 C46.6024138,47.4792787 46.5051724,47.7519344 46.4089655,48.0245902 C46.1772414,47.9522951 45.9455172,47.8903279 45.7137931,47.8211311 C45.4293103,47.7364426 45.1448276,47.6517541 44.8603448,47.5711967 C44.4351724,47.4513934 44.01,47.3398525 43.5848276,47.230377 C43.3168966,47.1611803 43.05,47.0888852 42.782069,47.0238197 C42.3051724,46.9081475 41.8293103,46.8028033 41.3534483,46.6995246 C41.1403448,46.6530492 40.9262069,46.6014098 40.7131034,46.5580328 C40.0262069,46.4175738 39.3403448,46.2884754 38.6565517,46.1738361 C38.5386207,46.1542131 38.4217241,46.1397541 38.3037931,46.1211639 C37.7358621,46.0302787 37.167931,45.9455902 36.6010345,45.8722623 C36.3537931,45.8402459 36.1075862,45.8164918 35.8603448,45.7886066 C35.4237931,45.7390328 34.9872414,45.6904918 34.5527586,45.6512459 C34.2734483,45.626459 33.9951724,45.6078689 33.7168966,45.5872131 C33.3144828,45.5582951 32.9131034,45.5304098 32.5117241,45.5107869 C32.2210345,45.4963279 31.9313793,45.486 31.6417241,45.4767049 C31.44,45.4705082 31.2372414,45.457082 31.0355172,45.4529508 L31.0355172,30.9836066 L49.6313793,30.9836066 C49.6262069,31.228377 49.6231034,31.4741803 49.6137931,31.7189508 C49.6013793,32.0401475 49.59,32.3603115 49.5724138,32.6815082 Z M16.23,54.2078852 C15.8627586,53.4539508 15.5068966,52.6855574 15.1665517,51.9027049 C15.0796552,51.7013115 14.997931,51.4957869 14.9131034,51.2933607 C14.7268966,50.8523607 14.5510345,50.4041311 14.3751724,49.9559016 C14.5737931,49.8949672 14.7724138,49.8319672 14.9710345,49.7730984 C15.2368966,49.6946066 15.5027586,49.6161148 15.7686207,49.5417541 C16.1813793,49.426082 16.5931034,49.3176393 17.0058621,49.2112623 C17.2582759,49.1461967 17.5096552,49.0800984 17.7610345,49.0191639 C18.2141379,48.9096885 18.6662069,48.8095082 19.1172414,48.7113934 C19.3262069,48.6659508 19.5351724,48.616377 19.7431034,48.5740328 C20.4031034,48.4387377 21.0631034,48.3148033 21.7210345,48.2053279 C21.7386207,48.2022295 21.7562069,48.2001639 21.7737931,48.1970656 C22.4131034,48.0917213 23.0513793,47.9987705 23.6886207,47.9182131 C23.8975862,47.8913607 24.1065517,47.8717377 24.3155172,47.8479836 C24.7613793,47.7963443 25.2062069,47.7478033 25.65,47.7075246 C25.8962069,47.6858361 26.1424138,47.6693115 26.3886207,47.6507213 C26.7951724,47.6207705 27.2017241,47.593918 27.6072414,47.5732623 C27.8648276,47.5608689 28.1224138,47.550541 28.38,47.5422787 C28.5755172,47.536082 28.7710345,47.5340164 28.9655172,47.5298852 L28.9655172,57.8164426 C24.4944828,57.6501639 20.1175862,56.4118525 16.23,54.2078852 Z M12.5896552,44.8012623 C12.5048276,44.5131148 12.4148276,44.2239344 12.3341379,43.9357869 C12.1831034,43.3956393 12.0465517,42.8554918 11.9131034,42.316377 C11.8593103,42.0974262 11.7972414,41.8784754 11.7465517,41.6595246 C11.5686207,40.901459 11.4051724,40.1444262 11.2613793,39.389459 C11.2365517,39.2582951 11.217931,39.1281639 11.1941379,38.9980328 C11.0793103,38.3752623 10.9727586,37.7524918 10.8817241,37.1317869 C10.8434483,36.869459 10.8144828,36.6091967 10.7803448,36.3479016 C10.7162069,35.8583607 10.6531034,35.3677869 10.6034483,34.8803115 C10.5734483,34.587 10.5517241,34.2947213 10.5268966,34.0024426 C10.4886207,33.5480164 10.4534483,33.0935902 10.4275862,32.6401967 C10.41,32.3355246 10.3996552,32.0308525 10.3882759,31.7272131 C10.3789655,31.4793443 10.3758621,31.2325082 10.3696552,30.9846393 L28.9655172,30.9846393 L28.9655172,45.4550164 C28.7658621,45.4591475 28.5641379,45.4725738 28.3634483,45.4787705 C28.0737931,45.4880656 27.7841379,45.4983934 27.4934483,45.5128525 C27.0962069,45.5324754 26.697931,45.5593279 26.2996552,45.5882459 C26.0193103,45.6089016 25.7389655,45.6274918 25.4586207,45.6522787 C25.0303448,45.6904918 24.6010345,45.738 24.1717241,45.786541 C23.9193103,45.815459 23.6668966,45.8392131 23.4144828,45.8722623 C22.8568966,45.9435246 22.2993103,46.0271803 21.7396552,46.116 C21.6155172,46.135623 21.4913793,46.1511148 21.3672414,46.1717705 C20.6844828,46.285377 20.0006897,46.4134426 19.3158621,46.5539016 C19.1068966,46.5962459 18.897931,46.6468525 18.6889655,46.6922951 C18.2089655,46.7966066 17.7289655,46.9019508 17.247931,47.0186557 C16.9872414,47.0816557 16.7255172,47.1518852 16.4648276,47.2190164 C16.0355172,47.3295246 15.6051724,47.4420984 15.1758621,47.5629344 C14.8965517,47.6414262 14.6172414,47.7240492 14.337931,47.8077049 C14.1041379,47.8769016 13.8713793,47.9399016 13.6375862,48.0121967 C13.5362069,47.7271475 13.4337931,47.4420984 13.3375862,47.1570492 C13.232069,46.8461803 13.1244828,46.5353115 13.0241379,46.2244426 C12.8710345,45.7483279 12.7293103,45.2742787 12.5896552,44.8012623 Z M10.4275862,27.2655738 C10.4524138,26.8163115 10.4875862,26.3660164 10.5258621,25.9157213 C10.5506897,25.6203443 10.5724138,25.326 10.6024138,25.030623 C10.6510345,24.5472787 10.7131034,24.0629016 10.7772414,23.5785246 C10.8113793,23.3141311 10.8403448,23.0497377 10.8796552,22.7853443 C10.9696552,22.1698033 11.0751724,21.5521967 11.1889655,20.9345902 C11.2137931,20.8003279 11.2313793,20.6681311 11.2572414,20.5338689 C11.4010345,19.7799344 11.5634483,19.0249672 11.7403448,18.2679344 C11.79,18.0572459 11.8489655,17.8455246 11.9006897,17.6338033 C12.0362069,17.087459 12.1737931,16.540082 12.3258621,15.9927049 C12.4034483,15.7128197 12.4913793,15.4319016 12.5741379,15.1520164 C12.7158621,14.6717705 12.8586207,14.1915246 13.0137931,13.7112787 C13.112069,13.4066066 13.2165517,13.1019344 13.32,12.7972623 C13.4172414,12.5101475 13.5206897,12.222 13.6231034,11.9348852 C13.8465517,12.004082 14.0710345,12.0639836 14.2955172,12.1290492 C14.582069,12.2137377 14.8675862,12.2973934 15.1541379,12.3779508 C15.5689655,12.493623 15.9848276,12.6010328 16.3996552,12.7074098 C16.6696552,12.7766066 16.9396552,12.8478689 17.2106897,12.9129344 C17.6751724,13.0244754 18.1396552,13.1256885 18.6041379,13.2248361 C18.8255172,13.2723443 19.0458621,13.3250164 19.2672414,13.3694262 C19.9510345,13.5078197 20.6348276,13.6338197 21.3186207,13.7453607 C21.4044828,13.7598197 21.4893103,13.7691148 21.5751724,13.782541 C22.1762069,13.8785902 22.7782759,13.9653443 23.3793103,14.0407377 C23.6058621,14.068623 23.8324138,14.0903115 24.0589655,14.1161311 C24.5193103,14.1677705 24.9796552,14.2173443 25.4389655,14.257623 C25.6996552,14.2803443 25.9593103,14.2968689 26.2189655,14.315459 C26.6451724,14.3464426 27.0703448,14.3743279 27.4955172,14.3939508 C27.7686207,14.407377 28.0417241,14.4166721 28.3148276,14.4249344 C28.5310345,14.4321639 28.7482759,14.4455902 28.9644828,14.4497213 L28.9644828,28.9180328 L10.3696552,28.9180328 C10.3748276,28.6722295 10.3789655,28.4264262 10.3872414,28.1795902 C10.3996552,27.874918 10.4110345,27.5702459 10.4275862,27.2655738 Z M43.8258621,5.7247377 C44.1941379,6.47557377 44.552069,7.24190164 44.8934483,8.0247541 C44.9813793,8.22511475 45.062069,8.43167213 45.1468966,8.63409836 C45.3331034,9.07509836 45.5089655,9.52436066 45.6868966,9.97362295 C45.5006897,10.0304262 45.3144828,10.0892951 45.1272414,10.1450656 C44.8468966,10.2276885 44.5655172,10.3092787 44.2851724,10.3877705 C43.8951724,10.4962131 43.5041379,10.598459 43.1131034,10.6986393 C42.8431034,10.7678361 42.5741379,10.8380656 42.3041379,10.9031311 C41.8758621,11.0064098 41.4475862,11.0993607 41.0193103,11.1912787 C40.7896552,11.2408525 40.5589655,11.2945574 40.3282759,11.3410328 C39.6931034,11.4690984 39.0568966,11.5868361 38.4217241,11.6921803 C38.3710345,11.7004426 38.3193103,11.7087049 38.2686207,11.7169672 C37.6396552,11.8192131 37.0117241,11.9090656 36.3837931,11.9875574 C36.1613793,12.0154426 35.94,12.0360984 35.7186207,12.0608852 C35.282069,12.110459 34.8444828,12.1579672 34.407931,12.1961803 C34.1482759,12.2189016 33.8886207,12.2354262 33.6289655,12.2540164 C33.2317241,12.2829344 32.8344828,12.3087541 32.4372414,12.328377 C32.1610345,12.3418033 31.8858621,12.3510984 31.6106897,12.3603934 C31.4172414,12.3665902 31.2248276,12.3686557 31.0324138,12.3727869 L31.0324138,2.08519672 C35.5282759,2.25147541 39.9237931,3.50114754 43.8258621,5.7247377 Z M48.4644828,9.03172131 C48.1996552,9.12777049 47.937931,9.22485246 47.6710345,9.31677049 C47.4848276,8.84272131 47.2934483,8.3707377 47.0958621,7.90391803 C47.5655172,8.26539344 48.0206897,8.64236066 48.4644828,9.03172131 Z M28.9655172,12.3717541 C28.7731034,12.367623 28.5817241,12.3655574 28.3893103,12.3593607 C28.1151724,12.3510984 27.84,12.3407705 27.5658621,12.3273443 C27.1727586,12.3087541 26.7796552,12.2829344 26.3865517,12.2540164 C26.1227586,12.2354262 25.86,12.2178689 25.5962069,12.1951475 C25.17,12.1579672 24.7427586,12.1114918 24.3165517,12.0639836 C24.0868966,12.0381639 23.8572414,12.0164754 23.6275862,11.9875574 C23.0058621,11.9090656 22.3831034,11.8212787 21.7603448,11.7200656 C21.7065517,11.7118033 21.6517241,11.7025082 21.597931,11.6942459 C20.9648276,11.5899344 20.3306897,11.4732295 19.6965517,11.3451639 C19.4762069,11.3007541 19.2558621,11.2491148 19.0344828,11.2016066 C18.5958621,11.107623 18.1572414,11.0115738 17.7186207,10.9072623 C17.4631034,10.8463279 17.2086207,10.7791967 16.9531034,10.7141311 C16.5455172,10.6108525 16.1389655,10.5044754 15.7313793,10.3908689 C15.4696552,10.3185738 15.2089655,10.2421475 14.9472414,10.1657213 C14.7506897,10.1078852 14.5541379,10.045918 14.3586207,9.98601639 C14.5355172,9.53572131 14.7124138,9.08439344 14.8986207,8.64132787 C14.9865517,8.4337377 15.0693103,8.22201639 15.1582759,8.0164918 C15.5006897,7.22744262 15.8596552,6.45388525 16.2289655,5.6937541 C20.1175862,3.4887541 24.4944828,2.25147541 28.9655172,2.08519672 L28.9655172,12.3717541 Z M12.3693103,9.34568852 C12.1531034,9.27132787 11.9358621,9.20006557 11.7206897,9.12363934 C11.672069,9.10608197 11.6224138,9.08955738 11.5737931,9.072 C11.5541379,9.06477049 11.5344828,9.0565082 11.5148276,9.05031148 C11.9875862,8.63409836 12.4758621,8.23337705 12.9775862,7.84814754 C12.7686207,8.34285246 12.5658621,8.8437541 12.3693103,9.34568852 Z M9.85344828,10.6397705 C10.0148276,10.7017377 10.1824138,10.7575082 10.3448276,10.8174098 C10.6634483,10.9351475 10.982069,11.0518525 11.3048276,11.165459 C11.4186207,11.2057377 11.5293103,11.2491148 11.6441379,11.2883607 C11.5437931,11.5713443 11.4558621,11.8543279 11.3606897,12.1373115 C11.25,12.4636721 11.1382759,12.7900328 11.0327586,13.1163934 C10.8775862,13.5987049 10.7337931,14.0799836 10.592069,14.5612623 C10.5010345,14.8690328 10.4068966,15.1757705 10.3210345,15.483541 C10.1731034,16.016459 10.0396552,16.5483443 9.90724138,17.0802295 C9.84413793,17.3332623 9.77482759,17.5873279 9.71586207,17.8403607 C9.53275862,18.6221803 9.36517241,19.404 9.21724138,20.1837541 C9.20068966,20.2694754 9.18931034,20.3551967 9.1737931,20.440918 C9.04448276,21.1370164 8.92758621,21.8310492 8.8262069,22.5240492 C8.78793103,22.7884426 8.75896552,23.0528361 8.72482759,23.3172295 C8.65758621,23.8305246 8.59241379,24.3438197 8.54068966,24.8550492 C8.50965517,25.1586885 8.48793103,25.4612951 8.46310345,25.7639016 C8.4237931,26.236918 8.38655172,26.7089016 8.36068966,27.1798525 C8.34310345,27.4938197 8.33172414,27.8077869 8.32034483,28.1207213 C8.31103448,28.3861475 8.29137931,28.6536393 8.2862069,28.9190656 L2.08758621,28.9190656 C2.33689655,22.0438033 5.06689655,15.609541 9.85344828,10.6397705 Z M8.2862069,30.9836066 C8.29137931,31.2500656 8.31,31.5175574 8.32034483,31.7840164 C8.33172414,32.0990164 8.34310345,32.4140164 8.36068966,32.7300492 C8.38655172,33.201 8.4237931,33.6729836 8.46310345,34.1449672 C8.48896552,34.4496393 8.51068966,34.7543115 8.54172414,35.0589836 C8.59344828,35.5722787 8.65965517,36.0866066 8.72689655,36.6019672 C8.76103448,36.8663607 8.79,37.1297213 8.82827586,37.3941148 C8.93172414,38.1026066 9.05172414,38.8131639 9.18413793,39.5247541 C9.19758621,39.5960164 9.20689655,39.6662459 9.22034483,39.7375082 C9.36931034,40.5213934 9.53896552,41.3073443 9.72310345,42.0943279 C9.77896552,42.3339344 9.8462069,42.5745738 9.90517241,42.8141803 C10.0406897,43.3625902 10.1793103,43.9099672 10.3324138,44.4594098 C10.4151724,44.7568525 10.5072414,45.0553279 10.5951724,45.3538033 C10.74,45.8464426 10.887931,46.339082 11.0472414,46.8317213 C11.1506897,47.1518852 11.2603448,47.4720492 11.37,47.7922131 C11.4682759,48.0803607 11.5572414,48.3685082 11.6596552,48.6566557 C11.0648276,48.8621803 10.4741379,49.077 9.89068966,49.2980164 C5.08137931,44.323082 2.33689655,37.8764262 2.08758621,30.9836066 L8.2862069,30.9836066 Z M11.577931,50.9050328 C11.85,50.806918 12.117931,50.7067377 12.392069,50.6127541 C12.5813793,51.0960984 12.7768966,51.577377 12.9775862,52.0534918 C12.4975862,51.6858197 12.032069,51.301623 11.577931,50.9050328 Z M31.0344828,47.5298852 C31.23,47.5340164 31.4244828,47.536082 31.62,47.5422787 C31.8817241,47.5515738 32.1444828,47.5608689 32.4072414,47.5742951 C32.8034483,47.593918 33.2017241,47.6207705 33.6,47.6496885 C33.8575862,47.6682787 34.1151724,47.6858361 34.3737931,47.7095902 C34.802069,47.7478033 35.2313793,47.7953115 35.6606897,47.8448852 C35.8862069,47.8707049 36.1117241,47.8923934 36.3382759,47.9213115 C36.9434483,47.9987705 37.5496552,48.0875902 38.157931,48.1877705 C38.2086207,48.1960328 38.2582759,48.2022295 38.3089655,48.2104918 C38.9658621,48.3199672 39.6237931,48.4439016 40.2817241,48.5791967 C40.4948276,48.6225738 40.7089655,48.6742131 40.922069,48.7196557 C41.3731034,48.8177705 41.8241379,48.9179508 42.2751724,49.0274262 C42.5244828,49.0883607 42.7737931,49.154459 43.0231034,49.2184918 C43.442069,49.3259016 43.86,49.4364098 44.2789655,49.5551803 C44.5375862,49.6274754 44.7972414,49.7039016 45.0558621,49.7813607 C45.2606897,49.8422951 45.4655172,49.9073607 45.6693103,49.9703607 C45.4955172,50.4103279 45.3227586,50.8502951 45.1396552,51.2840656 C45.0527586,51.4895902 44.9710345,51.6982131 44.882069,51.9006393 C44.5437931,52.6752295 44.19,53.4332951 43.8248276,54.1769016 C39.9237931,56.4004918 35.5282759,57.6501639 31.0344828,57.8164426 L31.0344828,47.5298852 L31.0344828,47.5298852 Z M47.6534483,50.6282459 C47.912069,50.7180984 48.1655172,50.812082 48.422069,50.9050328 C47.9917241,51.2830328 47.55,51.6465738 47.0968966,51.9966885 C47.2872414,51.5432951 47.4734483,51.0868033 47.6534483,50.6282459 Z M50.1082759,49.2990492 C49.5403448,49.0831967 48.9641379,48.8745738 48.3848276,48.6731803 C48.4872414,48.3829672 48.5772414,48.0927541 48.6755172,47.8035738 C48.7789655,47.4968361 48.8844828,47.1900984 48.9827586,46.8833607 C49.1441379,46.3803934 49.2941379,45.8774262 49.4410345,45.374459 C49.5237931,45.0914754 49.6106897,44.8084918 49.6893103,44.5255082 C49.8455172,43.9626393 49.9862069,43.3987377 50.1248276,42.8358689 C50.1796552,42.6138197 50.2406897,42.3907377 50.2924138,42.1686885 C50.4765517,41.3775738 50.6441379,40.5874918 50.7931034,39.796377 C50.7941379,39.7922459 50.7941379,39.787082 50.7951724,39.7829508 C50.9410345,39.0042295 51.0682759,38.2255082 51.18,37.4478197 C51.2162069,37.1978852 51.242069,36.9489836 51.2741379,36.6990492 C51.3434483,36.1661311 51.4096552,35.6332131 51.4624138,35.1013279 C51.4924138,34.8007869 51.5131034,34.5012787 51.537931,34.2017705 C51.5772414,33.719459 51.6144828,33.2371475 51.6403448,32.7548361 C51.657931,32.4388033 51.6682759,32.1227705 51.6796552,31.8077705 C51.69,31.534082 51.7086207,31.2583279 51.7137931,30.9846393 L57.9124138,30.9846393 C57.6631034,37.8764262 54.9186207,44.323082 50.1082759,49.2990492 Z M51.7137931,28.9180328 C51.7086207,28.645377 51.69,28.3727213 51.6796552,28.1000656 C51.6682759,27.7840328 51.657931,27.468 51.6403448,27.1509344 C51.6144828,26.6758525 51.5782759,26.1997377 51.5389655,25.723623 C51.5141379,25.417918 51.4924138,25.1122131 51.4624138,24.8054754 C51.4117241,24.2942459 51.3475862,23.7830164 51.2824138,23.2717869 C51.2472414,23.0001639 51.2193103,22.7295738 51.18,22.4579508 C51.0796552,21.7577213 50.9627586,21.056459 50.8344828,20.3551967 C50.82,20.2746393 50.8096552,20.194082 50.7941379,20.1135246 C50.6482759,19.3358361 50.4827586,18.5571148 50.3027586,17.7794262 C50.2417241,17.514 50.1693103,17.2485738 50.1041379,16.9831475 C49.9768966,16.4657213 49.8486207,15.9482951 49.7058621,15.4319016 C49.62,15.1189672 49.5237931,14.8070656 49.4327586,14.4941311 C49.2941379,14.0221475 49.1544828,13.5511967 49.0034483,13.0802459 C48.8989655,12.7528525 48.7872414,12.425459 48.6765517,12.0980656 C48.5834483,11.8223115 48.4986207,11.5465574 48.4013793,11.2718361 C48.5172414,11.2315574 48.63,11.1881803 48.7448276,11.1468689 C49.05,11.039459 49.35,10.9289508 49.652069,10.8174098 C49.8165517,10.7564754 49.9841379,10.6996721 50.1475862,10.6377049 C54.9341379,15.6085082 57.6651724,22.0417377 57.9144828,28.9159672 L51.7137931,28.9159672 L51.7137931,28.9180328 Z"/>
  </g>
</svg>
