<svg xmlns="http://www.w3.org/2000/svg" width="60" height="76" viewBox="0 0 60 76">
  <g fill="none">
    <path fill="#00F2A9" d="M2.07538043,33.5010948 C1.04755435,34.5336466 1.04625,36.2082672 2.07407609,37.240819 L3.88059783,39.0556466 C4.63451087,39.8130259 4.8588587,40.9543362 4.44798913,41.9436466 L3.46451087,44.31275 C2.90494565,45.6610948 3.5388587,47.2099224 4.88103261,47.7720603 L7.41277174,48.792819 C8.39233696,49.2042672 9.12668478,50.1673707 9.12668478,51.2339914 L9.12668478,53.884819 C9.12668478,55.3458534 10.1127717,56.3390948 11.5671196,56.3390948 L14.122337,56.3390948 C15.1892935,56.3390948 16.1505978,57.0820603 16.5575543,58.072681 L17.5292935,60.4941983 C18.082337,61.8451638 19.6214674,62.5134397 20.96625,61.9578534 L23.4066848,60.9619914 C24.3888587,60.5557845 25.5184239,60.7890259 26.2697283,61.5437845 L28.1349457,63.4215086 C29.1627717,64.4540603 30.8297283,64.4553707 31.8575543,63.422819 L33.6640761,61.6079914 C34.4192935,60.8506121 35.5540761,60.6252328 36.5388587,61.0379914 L38.8971196,62.0259914 C40.2392935,62.5881293 41.7810326,61.9513017 42.3405978,60.6029569 L43.3566848,58.0608879 C43.76625,57.076819 44.7249457,56.3390948 45.7866848,56.3390948 L48.4253804,56.3390948 C49.8797283,56.3390948 50.8658152,55.3458534 50.8658152,53.884819 L50.8658152,51.3178534 C50.8658152,50.2459914 51.6066848,49.2802672 52.5927717,48.8714397 L55.0045109,47.8952328 C56.3492935,47.3396466 57.0145109,45.7934397 56.4614674,44.4424741 L55.470163,41.990819 C55.0658152,41.0041293 55.2979891,39.8693707 56.0492935,39.1146121 L57.9210326,37.240819 C58.9488587,36.2082672 58.9488587,34.5336466 57.9210326,33.5010948 L56.1145109,31.6862672 C55.3605978,30.9275776 55.1349457,29.7875776 55.5458152,28.7982672 L56.5292935,26.4291638 C57.0888587,25.080819 56.4549457,23.5319914 55.1127717,22.9698534 L52.5810326,21.9490948 C51.600163,21.5376466 50.8658152,20.5758534 50.8658152,19.5079224 L50.8658152,16.8570948 C50.8658152,15.3960603 49.8797283,14.4080603 48.4253804,14.4080603 L45.870163,14.4080603 C44.8032065,14.4080603 43.8419022,13.6637845 43.4349457,12.6718534 L42.4632065,10.2490259 C41.910163,8.89806034 40.3710326,8.22978448 39.02625,8.78537069 L36.5858152,9.78123276 C35.6036413,10.1874397 34.4740761,9.95419828 33.7227717,9.19943966 L31.8575543,7.32171552 C30.8297283,6.28916379 29.1627717,6.28785345 28.1349457,7.32040517 L26.3284239,9.13523276 C25.5732065,9.89261207 24.4384239,10.1179914 23.4536413,9.70523276 L21.0953804,8.71723276 C19.7532065,8.15509483 18.2114674,8.79192241 17.6519022,10.1402672 L16.6358152,12.6849569 C16.22625,13.6690259 15.2675543,14.4080603 14.2058152,14.4080603 L11.5671196,14.4080603 C10.1127717,14.4080603 9.12668478,15.3960603 9.12668478,16.8570948 L9.12668478,19.4240603 C9.12668478,20.4959224 8.38581522,21.4616466 7.39972826,21.8704741 L4.98798913,22.846681 C3.64320652,23.4022672 2.97798913,24.9484741 3.53103261,26.2994397 L4.52233696,28.7510948 C4.92668478,29.7377845 4.69451087,30.8725431 3.94320652,31.6273017 L2.07538043,33.5010948 Z M29.99625,19.502681 C38.7210326,19.502681 45.7932065,26.6073707 45.7932065,35.3722672 C45.7932065,44.1371638 38.7210326,51.2405431 29.99625,51.2405431 C21.2714674,51.2405431 14.1992935,44.1358534 14.1992935,35.3709569 C14.1992935,26.6060603 21.2714674,19.502681 29.99625,19.502681 Z"/>
    <g fill="#322153">
      <path d="M1.15190217,27.3346121 C-0.38201087,28.8795086 -0.38201087,31.388819 1.15190217,32.9297845 L2.95842391,34.7459224 C3.34059783,35.1285431 3.45277174,35.7011638 3.24407609,36.2017155 L2.26059783,38.570819 C1.42581522,40.5835086 2.37668478,42.9054397 4.39581522,43.7506121 L6.91059783,44.7635086 C7.4388587,44.9849569 7.8236413,45.5025431 7.8236413,45.9952328 L7.8236413,48.64475 C7.82233696,50.8264741 9.39668478,52.4080603 11.5671196,52.4080603 L13.0397283,52.4080603 L13.0397283,74.6839224 C13.0397283,75.1045431 13.2405978,75.5002672 13.5810326,75.7479224 C13.9214674,75.9929569 14.3597283,76.0624052 14.75625,75.9274397 L29.99625,70.8236466 L45.23625,75.9274397 C45.3705978,75.9719914 45.510163,75.9942672 45.6484239,75.9942672 C45.9184239,75.9942672 46.1858152,75.9104052 46.4114674,75.7479224 C46.7519022,75.5002672 46.9527717,75.1045431 46.9527717,74.6839224 L46.9527717,52.4080603 L48.4253804,52.4080603 C50.5958152,52.4080603 52.170163,50.8264741 52.170163,48.6460603 L52.170163,46.0790948 C52.170163,45.5837845 52.55625,45.0661983 53.0805978,44.8499914 L55.500163,43.8698534 C57.5192935,43.0338534 58.4910326,40.7184741 57.6692935,38.7110259 L56.6740761,36.2554397 C56.4705978,35.7575086 56.5866848,35.188819 56.9688587,34.8061983 L58.8419022,32.9324052 C58.8419022,32.9310948 58.8432065,32.9297845 58.8445109,32.9297845 C60.3771196,31.3861983 60.3771196,28.8781983 58.8432065,27.3346121 L57.0353804,25.5197845 C56.6532065,25.1358534 56.5410326,24.5645431 56.7484239,24.062681 L57.7319022,21.6935776 C58.1375543,20.718681 58.140163,19.6441983 57.7397283,18.6653707 C57.3392935,17.6891638 56.5853804,16.9265431 55.5966848,16.5124741 L53.0832065,15.5008879 C52.5549457,15.2794397 52.170163,14.7618534 52.170163,14.2691638 L52.170163,11.6196466 C52.170163,9.43792241 50.5958152,7.85633621 48.4253804,7.85633621 L45.870163,7.85633621 C45.3692935,7.85633621 44.8645109,7.47633621 44.6466848,6.94171552 L43.6710326,4.51102586 C42.8388587,2.48523276 40.5379891,1.50902586 38.5358152,2.33192241 L36.0914674,3.33171552 C35.5932065,3.53612931 35.0297283,3.41688793 34.6475543,3.03557759 L32.7810326,1.15523276 C31.2419022,-0.385732758 28.7453804,-0.384422414 27.2114674,1.15523276 L25.4036413,2.97006035 C25.0227717,3.35268103 24.4527717,3.46799138 23.9545109,3.25702586 L21.59625,2.26902586 C19.5940761,1.43302586 17.2827717,2.38302586 16.440163,4.41406035 L15.4319022,6.93909483 C15.2114674,7.46978448 14.69625,7.85633621 14.2058152,7.85633621 L11.5684239,7.85633621 C9.39668478,7.85633621 7.82233696,9.43792241 7.82233696,11.6183362 L7.82233696,14.1853017 C7.82233696,14.6806121 7.43625,15.1981983 6.91190217,15.4144052 L4.49233696,16.3945431 C2.47451087,17.2305431 1.50277174,19.5446121 2.32320652,21.5533707 L3.31842391,24.0089569 C3.52190217,24.5068879 3.40581522,25.0755776 3.0236413,25.4595086 L1.15190217,27.3346121 Z M30.4084239,68.2003362 C30.1410326,68.1112328 29.850163,68.1112328 29.5827717,68.2003362 L15.6484239,72.8651638 L15.6484239,54.074819 L16.3227717,55.7533707 C17.15625,57.7804741 19.4597283,58.7579914 21.4579891,57.9324741 L23.902337,56.932681 C24.4019022,56.7282672 24.9640761,56.8475086 25.34625,57.228819 L27.2127717,59.1091638 C27.982337,59.8796466 28.9905978,60.2648879 29.9988587,60.2648879 C31.0071196,60.2648879 32.0153804,59.8796466 32.782337,59.1091638 L34.590163,57.2943362 C34.9710326,56.9104052 35.5410326,56.7964052 36.0392935,57.0073707 L38.3975543,57.9953707 C40.3971196,58.8313707 42.7110326,57.8813707 43.5536413,55.8503362 L44.3440761,53.8677845 L44.3440761,72.8651638 L30.4084239,68.2003362 Z M4.86538043,27.3149569 C5.99494565,26.1801983 6.33407609,24.4924741 5.73146739,23.0183362 L4.73625,20.56275 C4.45972826,19.8866121 4.79494565,19.1056466 5.47451087,18.8239224 L7.89277174,17.8437845 C9.41233696,17.21875 10.4310326,15.7472328 10.4310326,14.1853017 L10.4310326,11.6183362 C10.4310326,10.8832328 10.8353804,10.4770259 11.5671196,10.4770259 L14.2045109,10.4770259 C15.7514674,10.4770259 17.2110326,9.46150862 17.8449457,7.93102586 L18.8532065,5.40468103 C19.1349457,4.72592241 19.912337,4.40488793 20.5919022,4.68661207 L22.9488587,5.67461207 C24.4319022,6.29571552 26.1184239,5.9589569 27.2492935,4.82157759 L29.0558152,3.00806035 C29.572337,2.48916379 30.4175543,2.48916379 30.9340761,3.00806035 L32.8005978,4.88709483 C33.9288587,6.0205431 35.6075543,6.36123276 37.0775543,5.75716379 L39.5232065,4.75737069 C40.1910326,4.4769569 40.972337,4.81633621 41.2527717,5.49902586 L42.2284239,7.92971552 C42.8532065,9.45364655 44.3166848,10.4770259 45.870163,10.4770259 L48.4253804,10.4770259 C49.1571196,10.4770259 49.5614674,10.8832328 49.5614674,11.6183362 L49.5614674,14.2678534 C49.5614674,15.8219224 50.572337,17.2881983 52.0958152,17.9250259 L54.6105978,18.9379224 C54.9379891,19.0741983 55.192337,19.3336466 55.3279891,19.6625431 C55.4636413,19.99275 55.462337,20.3544052 55.3253804,20.6846121 L54.3419022,23.0537155 C53.7249457,24.5396466 54.0588587,26.2352328 55.1910326,27.3726121 L56.9975543,29.1874397 C57.5140761,29.7063362 57.5153804,30.552819 57.000163,31.0730259 L55.1258152,32.9494397 C53.99625,34.0841983 53.6571196,35.7719224 54.2597283,37.2460603 L55.2549457,39.7029569 C55.5314674,40.3790948 55.19625,41.15875 54.5166848,41.4404741 L52.0984239,42.4206121 C50.580163,43.0456466 49.5614674,44.5171638 49.5614674,46.0790948 L49.5614674,48.6460603 C49.5614674,49.3811638 49.1571196,49.7873707 48.4253804,49.7873707 L45.7879891,49.7873707 C44.2410326,49.7873707 42.7814674,50.8028879 42.1475543,52.3333707 L41.1392935,54.8597155 C40.85625,55.5384741 40.080163,55.8595086 39.4005978,55.5777845 L37.0436413,54.5897845 C35.5592935,53.96475 33.8740761,54.3054397 32.7432065,55.442819 L30.9366848,57.2563362 C30.420163,57.7752328 29.5749457,57.7752328 29.0584239,57.2563362 L27.1919022,55.3773017 C26.4340761,54.6159914 25.4271196,54.2110948 24.4032065,54.2110948 C23.902337,54.2110948 23.3975543,54.3080603 22.9136413,54.5072328 L20.4679891,55.5070259 C19.800163,55.7861293 19.0175543,55.4480603 18.7384239,54.7653707 L17.7627717,52.3359914 C17.1419022,50.81075 15.6771196,49.7873707 14.122337,49.7873707 L11.5671196,49.7873707 C10.8353804,49.7873707 10.4310326,49.3811638 10.4310326,48.6460603 L10.4310326,45.9965431 C10.4310326,44.4424741 9.42016304,42.9761983 7.89668478,42.3393707 L5.38190217,41.3264741 C4.70625,41.0421293 4.38538043,40.2598534 4.66711957,39.5797845 L5.65059783,37.2119914 C6.2688587,35.72475 5.93494565,34.0291638 4.80146739,32.8917845 L2.99625,31.0769569 C2.47972826,30.5580603 2.47972826,29.7089569 2.99625,29.1900603 L4.86538043,27.3149569 Z"/>
      <path d="M29.99625,47.310819 C39.4253804,47.310819 47.09625,39.604681 47.09625,30.1321983 C47.09625,20.6597155 39.4253804,12.9535776 29.99625,12.9535776 C20.5671196,12.9535776 12.89625,20.6597155 12.89625,30.1321983 C12.89625,39.604681 20.5671196,47.310819 29.99625,47.310819 Z M29.99625,15.5742672 C37.9866848,15.5742672 44.4875543,22.1050259 44.4875543,30.1321983 C44.4875543,38.1593707 37.9866848,44.6901293 29.99625,44.6901293 C22.0058152,44.6901293 15.5049457,38.1593707 15.5049457,30.1321983 C15.5049457,22.1050259 22.0058152,15.5742672 29.99625,15.5742672 Z"/>
      <path d="M29.99625 39.3046121C30.7175543 39.3046121 31.3005978 38.7188879 31.3005978 37.9942672 31.3005978 37.2696466 30.7175543 36.6839224 29.99625 36.6839224 26.400163 36.6839224 23.4745109 33.744819 23.4745109 30.1321983 23.4745109 29.4075776 22.8914674 28.8218534 22.170163 28.8218534 21.4488587 28.8218534 20.8658152 29.4075776 20.8658152 30.1321983 20.8658152 35.188819 24.9627717 39.3046121 29.99625 39.3046121zM29.99625 23.5804741C33.592337 23.5804741 36.5179891 26.5195776 36.5179891 30.1321983 36.5179891 30.856819 37.1010326 31.4425431 37.822337 31.4425431 38.5436413 31.4425431 39.1266848 30.856819 39.1266848 30.1321983 39.1266848 25.0755776 35.0297283 20.9597845 29.99625 20.9597845 29.2749457 20.9597845 28.6919022 21.5455086 28.6919022 22.2701293 28.6919022 22.99475 29.2749457 23.5804741 29.99625 23.5804741zM19.5614674 62.890819C18.840163 62.890819 18.2571196 63.4765431 18.2571196 64.2011638L18.2571196 69.4425431C18.2571196 70.1671638 18.840163 70.7528879 19.5614674 70.7528879 20.2827717 70.7528879 20.8658152 70.1671638 20.8658152 69.4425431L20.8658152 64.2011638C20.8658152 63.4765431 20.2827717 62.890819 19.5614674 62.890819z"/>
    </g>
    <path fill="#00F2A9" d="M2.07538043,33.5010949 C1.04755435,34.5336466 1.04625,36.2082673 2.07407609,37.240819 L3.88059783,39.0556466 C4.63451087,39.8130259 4.8588587,40.9543363 4.44798913,41.9436466 L3.46451087,44.3127501 C2.90494565,45.6610949 3.5388587,47.2099225 4.88103261,47.7720604 L7.41277174,48.792819 C8.39233696,49.2042673 9.12668478,50.1673707 9.12668478,51.2339914 L9.12668478,53.884819 C9.12668478,55.3458535 10.1127717,56.3390949 11.5671196,56.3390949 L14.122337,56.3390949 C15.1892935,56.3390949 16.1505978,57.0820604 16.5575543,58.0726811 L17.5292935,60.4941983 C18.082337,61.8451638 19.6214674,62.5134397 20.96625,61.9578535 L23.4066848,60.9619914 C24.3888587,60.5557845 25.5184239,60.7890259 26.2697283,61.5437845 L28.1349457,63.4215087 C29.1627717,64.4540604 30.8297283,64.4553707 31.8575543,63.422819 L33.6640761,61.6079914 C34.4192935,60.8506121 35.5540761,60.6252328 36.5388587,61.0379914 L38.8971196,62.0259914 C40.2392935,62.5881294 41.7810326,61.9513018 42.3405978,60.6029569 L43.3566848,58.060888 C43.76625,57.076819 44.7249457,56.3390949 45.7866848,56.3390949 L48.4253804,56.3390949 C49.8797283,56.3390949 50.8658152,55.3458535 50.8658152,53.884819 L50.8658152,51.3178535 C50.8658152,50.2459914 51.6066848,49.2802673 52.5927717,48.8714397 L55.0045109,47.8952328 C56.3492935,47.3396466 57.0145109,45.7934397 56.4614674,44.4424742 L55.470163,41.990819 C55.0658152,41.0041294 55.2979891,39.8693707 56.0492935,39.1146121 L57.9210326,37.240819 C58.9488587,36.2082673 58.9488587,34.5336466 57.9210326,33.5010949 L56.1145109,31.6862673 C55.3605978,30.9275776 55.1349457,29.7875776 55.5458152,28.7982673 L56.5292935,26.4291638 C57.0888587,25.080819 56.4549457,23.5319914 55.1127717,22.9698535 L52.5810326,21.9490949 C51.600163,21.5376466 50.8658152,20.5758535 50.8658152,19.5079225 L50.8658152,16.8570949 C50.8658152,15.3960604 49.8797283,14.4080604 48.4253804,14.4080604 L45.870163,14.4080604 C44.8032065,14.4080604 43.8419022,13.6637845 43.4349457,12.6718535 L42.4632065,10.2490259 C41.910163,8.8980604 40.3710326,8.22978453 39.02625,8.78537074 L36.5858152,9.78123281 C35.6036413,10.1874397 34.4740761,9.95419833 33.7227717,9.19943971 L31.8575543,7.32171557 C30.8297283,6.28916385 29.1627717,6.2878535 28.1349457,7.32040522 L26.3284239,9.13523281 C25.5732065,9.89261212 24.4384239,10.1179914 23.4536413,9.70523281 L21.0953804,8.71723281 C19.7532065,8.15509488 18.2114674,8.79192247 17.6519022,10.1402673 L16.6358152,12.6849569 C16.22625,13.6690259 15.2675543,14.4080604 14.2058152,14.4080604 L11.5671196,14.4080604 C10.1127717,14.4080604 9.12668478,15.3960604 9.12668478,16.8570949 L9.12668478,19.4240604 C9.12668478,20.4959225 8.38581522,21.4616466 7.39972826,21.8704742 L4.98798913,22.8466811 C3.64320652,23.4022673 2.97798913,24.9484742 3.53103261,26.2994397 L4.52233696,28.7510949 C4.92668478,29.7377845 4.69451087,30.8725432 3.94320652,31.6273018 L2.07538043,33.5010949 Z M29.99625,19.5026811 C38.7210326,19.5026811 45.7932065,26.6073707 45.7932065,35.3722673 C45.7932065,44.1371638 38.7210326,51.2405432 29.99625,51.2405432 C21.2714674,51.2405432 14.1992935,44.1358535 14.1992935,35.3709569 C14.1992935,26.6060604 21.2714674,19.5026811 29.99625,19.5026811 Z"/>
    <path fill="#322153" d="M1.15190217,27.3346121 C-0.38201087,28.8795087 -0.38201087,31.388819 1.15190217,32.9297845 L2.95842391,34.7459225 C3.34059783,35.1285432 3.45277174,35.7011638 3.24407609,36.2017156 L2.26059783,38.570819 C1.42581522,40.5835087 2.37668478,42.9054397 4.39581522,43.7506121 L6.91059783,44.7635087 C7.4388587,44.9849569 7.8236413,45.5025432 7.8236413,45.9952328 L7.8236413,48.6447501 C7.82233696,50.8264742 9.39668478,52.4080604 11.5671196,52.4080604 L13.0397283,52.4080604 L13.0397283,74.6839225 C13.0397283,75.1045432 13.2405978,75.5002673 13.5810326,75.7479225 C13.9214674,75.9929569 14.3597283,76.0624052 14.75625,75.9274397 L29.99625,70.8236466 L45.23625,75.9274397 C45.3705978,75.9719914 45.510163,75.9942673 45.6484239,75.9942673 C45.9184239,75.9942673 46.1858152,75.9104052 46.4114674,75.7479225 C46.7519022,75.5002673 46.9527717,75.1045432 46.9527717,74.6839225 L46.9527717,52.4080604 L48.4253804,52.4080604 C50.5958152,52.4080604 52.170163,50.8264742 52.170163,48.6460604 L52.170163,46.0790949 C52.170163,45.5837845 52.55625,45.0661983 53.0805978,44.8499914 L55.500163,43.8698535 C57.5192935,43.0338535 58.4910326,40.7184742 57.6692935,38.7110259 L56.6740761,36.2554397 C56.4705978,35.7575087 56.5866848,35.188819 56.9688587,34.8061983 L58.8419022,32.9324052 C58.8419022,32.9310949 58.8432065,32.9297845 58.8445109,32.9297845 C60.3771196,31.3861983 60.3771196,28.8781983 58.8432065,27.3346121 L57.0353804,25.5197845 C56.6532065,25.1358535 56.5410326,24.5645432 56.7484239,24.0626811 L57.7319022,21.6935776 C58.1375543,20.7186811 58.140163,19.6441983 57.7397283,18.6653707 C57.3392935,17.6891638 56.5853804,16.9265432 55.5966848,16.5124742 L53.0832065,15.500888 C52.5549457,15.2794397 52.170163,14.7618535 52.170163,14.2691638 L52.170163,11.6196466 C52.170163,9.43792247 50.5958152,7.85633626 48.4253804,7.85633626 L45.870163,7.85633626 C45.3692935,7.85633626 44.8645109,7.47633626 44.6466848,6.94171557 L43.6710326,4.51102591 C42.8388587,2.48523281 40.5379891,1.50902591 38.5358152,2.33192247 L36.0914674,3.33171557 C35.5932065,3.53612936 35.0297283,3.41688798 34.6475543,3.03557764 L32.7810326,1.15523281 C31.2419022,-0.385732706 28.7453804,-0.384422362 27.2114674,1.15523281 L25.4036413,2.9700604 C25.0227717,3.35268109 24.4527717,3.46799143 23.9545109,3.25702591 L21.59625,2.26902591 C19.5940761,1.43302591 17.2827717,2.38302591 16.440163,4.4140604 L15.4319022,6.93909488 C15.2114674,7.46978454 14.69625,7.85633626 14.2058152,7.85633626 L11.5684239,7.85633626 C9.39668478,7.85633626 7.82233696,9.43792247 7.82233696,11.6183363 L7.82233696,14.1853018 C7.82233696,14.6806121 7.43625,15.1981983 6.91190217,15.4144052 L4.49233696,16.3945432 C2.47451087,17.2305432 1.50277174,19.5446121 2.32320652,21.5533707 L3.31842391,24.0089569 C3.52190217,24.506888 3.40581522,25.0755776 3.0236413,25.4595087 L1.15190217,27.3346121 Z M30.4084239,68.2003363 C30.1410326,68.1112328 29.850163,68.1112328 29.5827717,68.2003363 L15.6484239,72.8651638 L15.6484239,54.074819 L16.3227717,55.7533707 C17.15625,57.7804742 19.4597283,58.7579914 21.4579891,57.9324742 L23.902337,56.9326811 C24.4019022,56.7282673 24.9640761,56.8475087 25.34625,57.228819 L27.2127717,59.1091638 C27.982337,59.8796466 28.9905978,60.264888 29.9988587,60.264888 C31.0071196,60.264888 32.0153804,59.8796466 32.782337,59.1091638 L34.590163,57.2943363 C34.9710326,56.9104052 35.5410326,56.7964052 36.0392935,57.0073707 L38.3975543,57.9953707 C40.3971196,58.8313707 42.7110326,57.8813707 43.5536413,55.8503363 L44.3440761,53.8677845 L44.3440761,72.8651638 L30.4084239,68.2003363 Z M4.86538043,27.3149569 C5.99494565,26.1801983 6.33407609,24.4924742 5.73146739,23.0183363 L4.73625,20.5627501 C4.45972826,19.8866121 4.79494565,19.1056466 5.47451087,18.8239225 L7.89277174,17.8437845 C9.41233696,17.2187501 10.4310326,15.7472328 10.4310326,14.1853018 L10.4310326,11.6183363 C10.4310326,10.8832328 10.8353804,10.4770259 11.5671196,10.4770259 L14.2045109,10.4770259 C15.7514674,10.4770259 17.2110326,9.46150867 17.8449457,7.93102591 L18.8532065,5.40468109 C19.1349457,4.72592247 19.912337,4.40488798 20.5919022,4.68661212 L22.9488587,5.67461212 C24.4319022,6.29571557 26.1184239,5.95895695 27.2492935,4.82157764 L29.0558152,3.0080604 C29.572337,2.48916385 30.4175543,2.48916385 30.9340761,3.0080604 L32.8005978,4.88709488 C33.9288587,6.02054316 35.6075543,6.36123281 37.0775543,5.75716385 L39.5232065,4.75737074 C40.1910326,4.47695695 40.972337,4.81633626 41.2527717,5.49902591 L42.2284239,7.92971557 C42.8532065,9.4536466 44.3166848,10.4770259 45.870163,10.4770259 L48.4253804,10.4770259 C49.1571196,10.4770259 49.5614674,10.8832328 49.5614674,11.6183363 L49.5614674,14.2678535 C49.5614674,15.8219225 50.572337,17.2881983 52.0958152,17.9250259 L54.6105978,18.9379225 C54.9379891,19.0741983 55.192337,19.3336466 55.3279891,19.6625432 C55.4636413,19.9927501 55.462337,20.3544052 55.3253804,20.6846121 L54.3419022,23.0537156 C53.7249457,24.5396466 54.0588587,26.2352328 55.1910326,27.3726121 L56.9975543,29.1874397 C57.5140761,29.7063363 57.5153804,30.552819 57.000163,31.0730259 L55.1258152,32.9494397 C53.99625,34.0841983 53.6571196,35.7719225 54.2597283,37.2460604 L55.2549457,39.7029569 C55.5314674,40.3790949 55.19625,41.1587501 54.5166848,41.4404742 L52.0984239,42.4206121 C50.580163,43.0456466 49.5614674,44.5171638 49.5614674,46.0790949 L49.5614674,48.6460604 C49.5614674,49.3811638 49.1571196,49.7873707 48.4253804,49.7873707 L45.7879891,49.7873707 C44.2410326,49.7873707 42.7814674,50.802888 42.1475543,52.3333707 L41.1392935,54.8597156 C40.85625,55.5384742 40.080163,55.8595087 39.4005978,55.5777845 L37.0436413,54.5897845 C35.5592935,53.9647501 33.8740761,54.3054397 32.7432065,55.442819 L30.9366848,57.2563363 C30.420163,57.7752328 29.5749457,57.7752328 29.0584239,57.2563363 L27.1919022,55.3773018 C26.4340761,54.6159914 25.4271196,54.2110949 24.4032065,54.2110949 C23.902337,54.2110949 23.3975543,54.3080604 22.9136413,54.5072328 L20.4679891,55.5070259 C19.800163,55.7861294 19.0175543,55.4480604 18.7384239,54.7653707 L17.7627717,52.3359914 C17.1419022,50.8107501 15.6771196,49.7873707 14.122337,49.7873707 L11.5671196,49.7873707 C10.8353804,49.7873707 10.4310326,49.3811638 10.4310326,48.6460604 L10.4310326,45.9965432 C10.4310326,44.4424742 9.42016304,42.9761983 7.89668478,42.3393707 L5.38190217,41.3264742 C4.70625,41.0421294 4.38538043,40.2598535 4.66711957,39.5797845 L5.65059783,37.2119914 C6.2688587,35.7247501 5.93494565,34.0291638 4.80146739,32.8917845 L2.99625,31.0769569 C2.47972826,30.5580604 2.47972826,29.7089569 2.99625,29.1900604 L4.86538043,27.3149569 Z"/>
    <path fill="#322153" d="M29.99625,47.310819 C39.4253804,47.310819 47.09625,39.6046811 47.09625,30.1321983 C47.09625,20.6597156 39.4253804,12.9535776 29.99625,12.9535776 C20.5671196,12.9535776 12.89625,20.6597156 12.89625,30.1321983 C12.89625,39.6046811 20.5671196,47.310819 29.99625,47.310819 Z M29.99625,15.5742673 C37.9866848,15.5742673 44.4875543,22.1050259 44.4875543,30.1321983 C44.4875543,38.1593707 37.9866848,44.6901294 29.99625,44.6901294 C22.0058152,44.6901294 15.5049457,38.1593707 15.5049457,30.1321983 C15.5049457,22.1050259 22.0058152,15.5742673 29.99625,15.5742673 Z"/>
    <path fill="#322153" d="M29.99625 39.3046121C30.7175543 39.3046121 31.3005978 38.718888 31.3005978 37.9942673 31.3005978 37.2696466 30.7175543 36.6839225 29.99625 36.6839225 26.400163 36.6839225 23.4745109 33.744819 23.4745109 30.1321983 23.4745109 29.4075776 22.8914674 28.8218535 22.170163 28.8218535 21.4488587 28.8218535 20.8658152 29.4075776 20.8658152 30.1321983 20.8658152 35.188819 24.9627717 39.3046121 29.99625 39.3046121zM29.99625 23.5804742C33.592337 23.5804742 36.5179891 26.5195776 36.5179891 30.1321983 36.5179891 30.856819 37.1010326 31.4425432 37.822337 31.4425432 38.5436413 31.4425432 39.1266848 30.856819 39.1266848 30.1321983 39.1266848 25.0755776 35.0297283 20.9597845 29.99625 20.9597845 29.2749457 20.9597845 28.6919022 21.5455087 28.6919022 22.2701294 28.6919022 22.9947501 29.2749457 23.5804742 29.99625 23.5804742zM19.5614674 62.890819C18.840163 62.890819 18.2571196 63.4765432 18.2571196 64.2011638L18.2571196 69.4425432C18.2571196 70.1671638 18.840163 70.752888 19.5614674 70.752888 20.2827717 70.752888 20.8658152 70.1671638 20.8658152 69.4425432L20.8658152 64.2011638C20.8658152 63.4765432 20.2827717 62.890819 19.5614674 62.890819z"/>
  </g>
</svg>
