<svg xmlns="http://www.w3.org/2000/svg" width="50" height="73" viewBox="0 0 50 73">
  <g fill="none">
    <path fill="#00F2A9" d="M.933483483 13.2722377C.0554054054 14.5838443-.117567568 16.2413033.46981982 17.7048934L9.14129129 39.302123 9.14129129 29.7283525 13.9460961 24.9414672 9.79474474.125057377.933483483 13.2722377zM37.4692192.125057377L33.1653153 24.9414672 37.9701201 29.7283525 37.9701201 39.302123 46.6415916 17.7060902C47.228979 16.2425 47.056006 14.585041 46.1779279 13.2734344L37.4692192.125057377z" transform="translate(1.201 33.658)"/>
    <g fill="#322153">
      <path d="M39.8115616,28.5447951 L40.3569069,25.2873197 C40.4037538,25.0072869 40.3484985,24.718877 40.201952,24.4747459 L25.7875375,0.540319672 C25.3539039,-0.180106557 24.1611111,-0.180106557 23.7274775,0.540319672 L9.31306306,24.4747459 C9.16651652,24.718877 9.11126126,25.0060902 9.15810811,25.2873197 L9.73348348,28.7243033 L1.13648649,41.478959 C0.0397897898,43.1196639 -0.177627628,45.1923852 0.557507508,47.0209754 L9.22897898,68.6170082 C9.41276276,69.0789426 9.85960961,69.3697459 10.3412913,69.3697459 C10.416967,69.3697459 10.4938438,69.3625656 10.5695195,69.3482049 C11.1352853,69.2405 11.5436937,68.7462541 11.5436937,68.1730246 L11.5436937,59.0946967 L15.3839339,55.2687787 L24.2187688,59.6703197 C24.3881381,59.7540902 24.5731231,59.7959754 24.7569069,59.7959754 C24.9406907,59.7959754 25.1256757,59.7540902 25.2938438,59.6703197 L34.1286787,55.2687787 L37.9701201,59.0946967 L37.9701201,68.1730246 C37.9701201,68.7462541 38.3785285,69.2405 38.9442943,69.3482049 C39.01997,69.3625656 39.0956456,69.3697459 39.1725225,69.3697459 C39.6542042,69.3697459 40.1010511,69.0789426 40.2872372,68.6170082 L48.9587087,47.0209754 C49.6926426,45.1923852 49.4764264,43.1196639 48.3833333,41.4837459 L39.8115616,28.5447951 Z M9.49324324,57.7531721 C9.26741742,57.976959 9.14129129,58.2809262 9.14129129,58.5992541 L9.14129129,61.9596475 L2.78693694,46.1330082 C2.3460961,45.034418 2.47582583,43.7910246 3.13168168,42.8109098 L10.3076577,32.164877 L11.7286787,40.6604016 L13.8596096,53.4030902 L9.49324324,57.7531721 Z M24.7569069,57.2613197 L16.231982,53.0141557 L12.1803303,28.8008934 L12.1803303,28.8008934 L11.6001502,25.3304016 L24.7569069,3.48186066 L37.9136637,25.3292049 L33.283033,53.0141557 L24.7569069,57.2613197 Z M46.7268769,46.1330082 L40.3725225,61.9596475 L40.3725225,58.5992541 C40.3725225,58.2809262 40.2463964,57.976959 40.0205706,57.7531721 L35.6554054,53.4042869 L39.3370871,32.1768443 L46.3785285,42.8073197 C47.037988,43.7910246 47.1677177,45.034418 46.7268769,46.1330082 Z"/>
      <path d="M24.7569069 19.1074508C21.4451952 19.1074508 18.7509009 21.7916967 18.7509009 25.0910574 18.7509009 28.390418 21.4451952 31.0746639 24.7569069 31.0746639 28.0686186 31.0746639 30.7629129 28.390418 30.7629129 25.0910574 30.7629129 21.7916967 28.0686186 19.1074508 24.7569069 19.1074508zM24.7569069 28.6812213C22.7701201 28.6812213 21.1533033 27.0704344 21.1533033 25.0910574 21.1533033 23.1116803 22.7701201 21.5008934 24.7569069 21.5008934 26.7436937 21.5008934 28.3605105 23.1116803 28.3605105 25.0910574 28.3605105 27.0704344 26.7436937 28.6812213 24.7569069 28.6812213zM24.7569069 33.4681066C24.0926426 33.4681066 23.5557057 34.003041 23.5557057 34.6648279L23.5557057 49.0254836C23.5557057 49.6872705 24.0926426 50.2222049 24.7569069 50.2222049 25.4211712 50.2222049 25.9581081 49.6872705 25.9581081 49.0254836L25.9581081 34.6648279C25.9581081 34.003041 25.4211712 33.4681066 24.7569069 33.4681066zM11.4175676 53.2774344L6.61276276 43.7036639C6.31486486 43.1124836 5.59414414 42.8755328 5.00075075 43.1687295 4.40735736 43.4643197 4.16711712 44.1835492 4.46381381 44.7747295L9.26861862 54.3485C9.47882883 54.7673525 9.90285285 55.0090902 10.3436937 55.0090902 10.5238739 55.0090902 10.7076577 54.9684016 10.8794294 54.8834344 11.4728228 54.5866475 11.7142643 53.8686148 11.4175676 53.2774344zM44.5130631 43.1675328C43.9196697 42.8743361 43.1977477 43.1112869 42.9010511 43.7024672L38.0962462 53.2762377C37.7995495 53.867418 38.0397898 54.5866475 38.6331832 54.8822377 38.8061562 54.9684016 38.9899399 55.0090902 39.1701201 55.0090902 39.610961 55.0090902 40.034985 54.7673525 40.2463964 54.3473033L45.0512012 44.7735328C45.3478979 44.1823525 45.1064565 43.4643197 44.5130631 43.1675328zM19.9521021 62.189418C19.2878378 62.189418 18.7509009 62.7243525 18.7509009 63.3861393L18.7509009 68.1730246C18.7509009 68.8348115 19.2878378 69.3697459 19.9521021 69.3697459 20.6163664 69.3697459 21.1533033 68.8348115 21.1533033 68.1730246L21.1533033 63.3861393C21.1533033 62.7243525 20.6163664 62.189418 19.9521021 62.189418zM34.3665165 57.4025328C33.7022523 57.4025328 33.1653153 57.9374672 33.1653153 58.5992541L33.1653153 63.3861393C33.1653153 64.0479262 33.7022523 64.5828607 34.3665165 64.5828607 35.0307808 64.5828607 35.5677177 64.0479262 35.5677177 63.3861393L35.5677177 58.5992541C35.5677177 57.9374672 35.0307808 57.4025328 34.3665165 57.4025328zM29.5617117 62.189418C28.8974474 62.189418 28.3605105 62.7243525 28.3605105 63.3861393L28.3605105 68.1730246C28.3605105 68.8348115 28.8974474 69.3697459 29.5617117 69.3697459 30.225976 69.3697459 30.7629129 68.8348115 30.7629129 68.1730246L30.7629129 63.3861393C30.7629129 62.7243525 30.225976 62.189418 29.5617117 62.189418zM6.73888889 10.7304016L6.73888889 5.94351639C6.73888889 5.28172951 6.20195195 4.74679508 5.53768769 4.74679508 4.87342342 4.74679508 4.33648649 5.28172951 4.33648649 5.94351639L4.33648649 10.7304016C4.33648649 11.3921885 4.87342342 11.927123 5.53768769 11.927123 6.20195195 11.927123 6.73888889 11.3921885 6.73888889 10.7304016zM48.7809309 23.8943361C48.1166667 23.8943361 47.5797297 24.4292705 47.5797297 25.0910574L47.5797297 29.8779426C47.5797297 30.5397295 48.1166667 31.0746639 48.7809309 31.0746639 49.4451952 31.0746639 49.9821321 30.5397295 49.9821321 29.8779426L49.9821321 25.0910574C49.9821321 24.4292705 49.4451952 23.8943361 48.7809309 23.8943361z"/>
    </g>
    <path fill="#00F2A9" d="M2.13468468 46.9300246C1.25660661 48.2416311 1.08363363 49.8990902 1.67102102 51.3626803L10.3424925 72.9599098 10.3424925 63.3861393 15.1472973 58.5992541 10.9959459 33.7828443 2.13468468 46.9300246zM38.6704204 33.7828443L34.3665165 58.5992541 39.1713213 63.3861393 39.1713213 72.9599098 47.8427928 51.363877C48.4301802 49.9002869 48.2572072 48.2428279 47.3791291 46.9312213L38.6704204 33.7828443z"/>
    <path fill="#322153" d="M39.8115616,28.5447951 L40.3569069,25.2873197 C40.4037538,25.0072869 40.3484985,24.718877 40.201952,24.4747459 L25.7875375,0.540319672 C25.3539039,-0.180106557 24.1611111,-0.180106557 23.7274775,0.540319672 L9.31306306,24.4747459 C9.16651652,24.718877 9.11126126,25.0060902 9.15810811,25.2873197 L9.73348348,28.7243033 L1.13648649,41.478959 C0.0397897898,43.1196639 -0.177627628,45.1923852 0.557507508,47.0209754 L9.22897898,68.6170082 C9.41276276,69.0789426 9.85960961,69.3697459 10.3412913,69.3697459 C10.416967,69.3697459 10.4938438,69.3625656 10.5695195,69.3482049 C11.1352853,69.2405 11.5436937,68.7462541 11.5436937,68.1730246 L11.5436937,59.0946967 L15.3839339,55.2687787 L24.2187688,59.6703197 C24.3881381,59.7540902 24.5731231,59.7959754 24.7569069,59.7959754 C24.9406907,59.7959754 25.1256757,59.7540902 25.2938438,59.6703197 L34.1286787,55.2687787 L37.9701201,59.0946967 L37.9701201,68.1730246 C37.9701201,68.7462541 38.3785285,69.2405 38.9442943,69.3482049 C39.01997,69.3625656 39.0956456,69.3697459 39.1725225,69.3697459 C39.6542042,69.3697459 40.1010511,69.0789426 40.2872372,68.6170082 L48.9587087,47.0209754 C49.6926426,45.1923852 49.4764264,43.1196639 48.3833333,41.4837459 L39.8115616,28.5447951 Z M9.49324324,57.7531721 C9.26741742,57.976959 9.14129129,58.2809262 9.14129129,58.5992541 L9.14129129,61.9596475 L2.78693694,46.1330082 C2.3460961,45.034418 2.47582583,43.7910246 3.13168168,42.8109098 L10.3076577,32.164877 L11.7286787,40.6604016 L13.8596096,53.4030902 L9.49324324,57.7531721 Z M24.7569069,57.2613197 L16.231982,53.0141557 L12.1803303,28.8008934 L12.1803303,28.8008934 L11.6001502,25.3304016 L24.7569069,3.48186066 L37.9136637,25.3292049 L33.283033,53.0141557 L24.7569069,57.2613197 Z M46.7268769,46.1330082 L40.3725225,61.9596475 L40.3725225,58.5992541 C40.3725225,58.2809262 40.2463964,57.976959 40.0205706,57.7531721 L35.6554054,53.4042869 L39.3370871,32.1768443 L46.3785285,42.8073197 C47.037988,43.7910246 47.1677177,45.034418 46.7268769,46.1330082 Z"/>
    <path fill="#322153" d="M24.7569069 19.1074508C21.4451952 19.1074508 18.7509009 21.7916967 18.7509009 25.0910574 18.7509009 28.390418 21.4451952 31.0746639 24.7569069 31.0746639 28.0686186 31.0746639 30.7629129 28.390418 30.7629129 25.0910574 30.7629129 21.7916967 28.0686186 19.1074508 24.7569069 19.1074508zM24.7569069 28.6812213C22.7701201 28.6812213 21.1533033 27.0704344 21.1533033 25.0910574 21.1533033 23.1116803 22.7701201 21.5008934 24.7569069 21.5008934 26.7436937 21.5008934 28.3605105 23.1116803 28.3605105 25.0910574 28.3605105 27.0704344 26.7436937 28.6812213 24.7569069 28.6812213zM24.7569069 33.4681066C24.0926426 33.4681066 23.5557057 34.003041 23.5557057 34.6648279L23.5557057 49.0254836C23.5557057 49.6872705 24.0926426 50.2222049 24.7569069 50.2222049 25.4211712 50.2222049 25.9581081 49.6872705 25.9581081 49.0254836L25.9581081 34.6648279C25.9581081 34.003041 25.4211712 33.4681066 24.7569069 33.4681066zM11.4175676 53.2774344L6.61276276 43.7036639C6.31486486 43.1124836 5.59414414 42.8755328 5.00075075 43.1687295 4.40735736 43.4643197 4.16711712 44.1835492 4.46381381 44.7747295L9.26861862 54.3485C9.47882883 54.7673525 9.90285285 55.0090902 10.3436937 55.0090902 10.5238739 55.0090902 10.7076577 54.9684016 10.8794294 54.8834344 11.4728228 54.5866475 11.7142643 53.8686148 11.4175676 53.2774344zM44.5130631 43.1675328C43.9196697 42.8743361 43.1977477 43.1112869 42.9010511 43.7024672L38.0962462 53.2762377C37.7995495 53.867418 38.0397898 54.5866475 38.6331832 54.8822377 38.8061562 54.9684016 38.9899399 55.0090902 39.1701201 55.0090902 39.610961 55.0090902 40.034985 54.7673525 40.2463964 54.3473033L45.0512012 44.7735328C45.3478979 44.1823525 45.1064565 43.4643197 44.5130631 43.1675328zM19.9521021 62.189418C19.2878378 62.189418 18.7509009 62.7243525 18.7509009 63.3861393L18.7509009 68.1730246C18.7509009 68.8348115 19.2878378 69.3697459 19.9521021 69.3697459 20.6163664 69.3697459 21.1533033 68.8348115 21.1533033 68.1730246L21.1533033 63.3861393C21.1533033 62.7243525 20.6163664 62.189418 19.9521021 62.189418zM34.3665165 57.4025328C33.7022523 57.4025328 33.1653153 57.9374672 33.1653153 58.5992541L33.1653153 63.3861393C33.1653153 64.0479262 33.7022523 64.5828607 34.3665165 64.5828607 35.0307808 64.5828607 35.5677177 64.0479262 35.5677177 63.3861393L35.5677177 58.5992541C35.5677177 57.9374672 35.0307808 57.4025328 34.3665165 57.4025328zM29.5617117 62.189418C28.8974474 62.189418 28.3605105 62.7243525 28.3605105 63.3861393L28.3605105 68.1730246C28.3605105 68.8348115 28.8974474 69.3697459 29.5617117 69.3697459 30.225976 69.3697459 30.7629129 68.8348115 30.7629129 68.1730246L30.7629129 63.3861393C30.7629129 62.7243525 30.225976 62.189418 29.5617117 62.189418zM6.73888889 10.7304016L6.73888889 5.94351639C6.73888889 5.28172951 6.20195195 4.74679508 5.53768769 4.74679508 4.87342342 4.74679508 4.33648649 5.28172951 4.33648649 5.94351639L4.33648649 10.7304016C4.33648649 11.3921885 4.87342342 11.927123 5.53768769 11.927123 6.20195195 11.927123 6.73888889 11.3921885 6.73888889 10.7304016zM48.7809309 23.8943361C48.1166667 23.8943361 47.5797297 24.4292705 47.5797297 25.0910574L47.5797297 29.8779426C47.5797297 30.5397295 48.1166667 31.0746639 48.7809309 31.0746639 49.4451952 31.0746639 49.9821321 30.5397295 49.9821321 29.8779426L49.9821321 25.0910574C49.9821321 24.4292705 49.4451952 23.8943361 48.7809309 23.8943361z"/>
  </g>
</svg>
